<?xml version="1.0" standalone="no"?>
<!DOCTYPE svg PUBLIC "-//W3C//DTD SVG 20010904//EN"
 "http://www.w3.org/TR/2001/REC-SVG-20010904/DTD/svg10.dtd">
<svg version="1.0" xmlns="http://www.w3.org/2000/svg"
 width="1040.000000pt" height="558.000000pt" viewBox="0 0 1040.000000 558.000000"
 preserveAspectRatio="xMidYMid meet">
<metadata>
Created by potrace 1.16, written by Peter Selinger 2001-2019
</metadata>
<g transform="translate(0.000000,558.000000) scale(0.100000,-0.100000)"
fill="#000000" stroke="none">
<path d="M6428 3700 c-136 -23 -217 -73 -255 -157 -24 -52 -26 -65 -24 -194
l1 -138 -42 -3 -43 -3 -3 -124 -3 -124 45 5 44 5 7 -260 7 -260 62 7 c33 3 98
9 144 13 l82 6 0 263 0 264 34 0 c18 0 54 3 80 6 l46 7 0 124 c0 123 0 123
-22 119 -13 -3 -52 -8 -86 -11 l-64 -6 4 101 c3 97 4 103 31 126 23 20 39 24
88 24 l59 0 0 104 c0 85 -3 105 -16 110 -21 8 -117 6 -176 -4z"/>
<path d="M8635 3676 l-110 -11 -3 -112 -3 -113 -44 0 -45 0 0 -126 0 -127 43
6 44 6 6 -112 c4 -62 7 -178 7 -259 0 -108 3 -148 12 -148 22 0 243 21 264 25
21 5 21 6 16 263 l-5 259 82 7 81 7 0 125 0 124 -40 -5 c-125 -16 -117 -16
-124 8 -3 12 -6 61 -6 110 l0 87 -32 -2 c-18 0 -82 -6 -143 -12z"/>
<path d="M630 3604 c0 -8 -22 -285 -50 -615 -27 -330 -50 -602 -50 -604 0 -3
58 -5 129 -5 122 0 129 1 134 21 l5 20 41 -20 c90 -46 252 -45 357 3 214 98
302 413 173 618 -71 110 -193 157 -364 137 -43 -4 -95 -17 -116 -27 l-38 -19
5 41 c8 74 34 396 34 432 l0 34 -130 0 c-111 0 -130 -2 -130 -16z m435 -704
c65 -40 82 -124 41 -194 -84 -143 -292 -92 -274 67 13 114 141 184 233 127z"/>
<path d="M4796 3593 c-3 -16 -13 -129 -22 -253 l-18 -226 -38 19 c-51 25 -165
37 -247 26 -182 -26 -316 -167 -344 -365 -26 -176 48 -338 180 -396 95 -42
247 -41 346 1 47 20 47 20 47 1 0 -19 7 -20 130 -20 109 0 130 2 130 15 0 22
88 1099 96 1168 l6 57 -130 0 -130 0 -6 -27z m-145 -688 c41 -22 69 -71 69
-123 0 -54 -20 -93 -67 -129 -30 -23 -46 -28 -94 -28 -65 0 -100 23 -125 82
-19 44 -18 69 7 120 38 78 137 115 210 78z"/>
<path d="M7972 3394 c-71 -19 -106 -38 -159 -87 -55 -51 -81 -99 -89 -170 -16
-139 60 -214 235 -232 85 -9 121 -43 86 -79 -36 -36 -134 -32 -220 8 l-50 23
-47 -85 c-27 -46 -48 -86 -48 -89 0 -2 28 -17 63 -33 160 -75 394 -52 510 50
62 55 90 117 90 205 1 134 -78 213 -230 231 -73 8 -101 29 -79 59 19 26 118
33 170 11 22 -9 40 -15 41 -14 4 5 65 174 65 181 0 3 -23 13 -52 22 -65 19
-214 19 -286 -1z"/>
<path d="M7480 3344 c-8 -1 -50 -6 -92 -9 -73 -6 -78 -8 -78 -30 0 -24 0 -24
-37 -8 -29 12 -63 14 -150 11 -104 -4 -116 -7 -187 -41 -156 -78 -236 -228
-223 -419 9 -134 74 -240 182 -296 94 -48 267 -42 378 14 41 21 47 22 47 8 0
-15 10 -16 83 -10 45 4 103 10 130 13 l47 6 0 292 c0 160 -3 333 -6 383 l-7
92 -36 -1 c-20 -1 -43 -3 -51 -5z m-266 -278 c95 -40 118 -145 49 -226 -35
-42 -73 -60 -127 -60 -86 0 -153 92 -127 173 17 51 48 87 95 108 49 22 67 23
110 5z"/>
<path d="M9590 3165 c-168 -19 -309 -34 -315 -34 -5 -1 32 -43 82 -93 l92 -93
-117 -81 c-516 -357 -1035 -566 -1632 -655 -177 -27 -572 -37 -772 -20 -338
29 -677 106 -956 217 -63 25 -116 43 -119 40 -8 -8 210 -109 342 -158 297
-111 592 -179 925 -213 224 -23 650 -16 855 14 579 86 1128 292 1616 606 l66
43 94 -94 c51 -52 96 -94 99 -94 4 0 16 136 29 303 12 166 24 312 27 325 2 12
1 22 -3 21 -5 -1 -145 -16 -313 -34z"/>
<path d="M2010 3173 c-44 -7 -94 -25 -121 -44 l-26 -18 5 24 4 25 -151 0
c-137 0 -151 -2 -151 -17 0 -10 -14 -178 -30 -373 -16 -195 -30 -361 -30 -368
0 -10 33 -12 148 -10 l147 3 17 204 c9 112 22 216 29 232 15 38 68 84 115 99
23 8 63 10 105 7 l67 -6 7 77 c3 42 8 91 11 109 3 24 0 34 -13 41 -22 11 -100
20 -133 15z"/>
<path d="M5420 3167 c-218 -62 -355 -273 -320 -493 17 -108 63 -184 144 -238
67 -46 142 -66 240 -66 142 0 247 42 332 132 59 63 88 113 109 195 38 147 -3
306 -102 393 -69 61 -135 83 -253 87 -65 2 -122 -2 -150 -10z m186 -266 c34
-21 64 -75 64 -115 0 -66 -54 -133 -126 -156 -50 -17 -103 0 -143 45 -105 120
67 310 205 226z"/>
<path d="M2527 3159 c-251 -36 -410 -332 -314 -588 24 -67 92 -142 153 -170
94 -45 268 -45 354 -1 l40 20 0 -20 c0 -19 6 -20 129 -20 l130 0 6 53 c9 83
55 659 55 695 l0 32 -130 0 c-126 0 -130 -1 -130 -21 0 -16 -4 -19 -17 -14
-84 36 -180 47 -276 34z m188 -259 c65 -40 82 -124 41 -194 -84 -143 -292 -92
-274 67 13 114 141 184 233 127z"/>
<path d="M3692 3160 c-35 -5 -83 -20 -109 -34 -56 -32 -56 -32 -51 -1 l5 25
-148 0 c-113 0 -149 -3 -149 -12 0 -7 -14 -173 -30 -368 -16 -195 -30 -361
-30 -367 0 -10 36 -13 145 -13 142 0 145 0 149 23 3 12 12 117 21 232 18 233
27 265 85 297 72 38 152 14 170 -51 9 -35 -2 -238 -26 -448 l-5 -53 148 0 149
0 19 233 c23 277 23 344 0 402 -40 107 -171 158 -343 135z"/>
<path d="M2465 1808 c-7 -37 -45 -308 -45 -329 0 -12 7 -19 20 -19 11 0 20 3
20 8 0 4 11 86 25 182 14 96 25 176 25 177 0 2 -9 3 -20 3 -12 0 -21 -8 -25
-22z"/>
<path d="M2776 1808 c-3 -13 -8 -45 -11 -71 -6 -45 -8 -48 -23 -34 -31 27 -85
31 -136 9 -55 -25 -86 -71 -86 -127 0 -92 78 -144 168 -113 35 13 42 13 42 2
0 -8 9 -14 20 -14 14 0 21 9 25 33 10 61 45 308 45 323 0 24 -39 17 -44 -8z
m-47 -154 c25 -31 26 -55 7 -93 -43 -83 -189 -56 -172 32 15 78 121 117 165
61z"/>
<path d="M4074 1780 c-6 -44 -9 -50 -30 -50 -19 0 -24 -5 -24 -25 0 -19 5 -25
20 -25 18 0 20 -5 15 -32 -29 -179 -30 -188 -5 -188 22 0 24 5 40 132 11 83
13 87 38 90 19 2 28 10 30 26 3 18 -1 22 -23 22 -25 0 -26 1 -19 50 6 46 5 50
-14 50 -18 0 -22 -8 -28 -50z"/>
<path d="M4734 1780 c-6 -44 -9 -50 -30 -50 -19 0 -24 -5 -24 -25 0 -19 5 -25
20 -25 18 0 20 -5 15 -32 -29 -179 -30 -188 -5 -188 22 0 24 5 40 132 11 83
13 87 38 90 19 2 28 10 30 26 3 18 -1 22 -23 22 -25 0 -26 1 -19 50 6 46 5 50
-14 50 -18 0 -22 -8 -28 -50z"/>
<path d="M6246 1808 c-3 -13 -8 -45 -11 -71 -6 -45 -8 -48 -23 -34 -31 27 -85
31 -136 9 -55 -25 -86 -71 -86 -127 0 -92 78 -144 168 -113 35 13 42 13 42 2
0 -8 9 -14 20 -14 14 0 21 9 25 33 10 61 45 308 45 323 0 24 -39 17 -44 -8z
m-47 -154 c25 -31 26 -55 7 -93 -43 -83 -189 -56 -172 32 15 78 121 117 165
61z"/>
<path d="M1533 1799 c3 -11 18 -92 33 -180 16 -92 32 -159 39 -159 6 0 37 54
70 120 33 66 62 116 66 112 3 -4 17 -58 29 -119 13 -62 28 -113 34 -113 11 0
166 326 166 349 0 6 -9 11 -20 11 -15 0 -26 -12 -39 -42 -10 -24 -36 -79 -56
-123 l-38 -80 -26 119 c-15 66 -31 121 -37 123 -5 2 -36 -51 -69 -117 -43 -88
-61 -115 -66 -102 -4 9 -15 64 -25 120 -17 97 -19 102 -42 102 -20 0 -23 -4
-19 -21z"/>
<path d="M3310 1808 c0 -7 -11 -87 -25 -178 -14 -91 -25 -166 -25 -167 0 -2
11 -3 24 -3 22 0 25 5 36 85 l12 85 64 0 c35 0 64 4 64 9 0 5 3 16 6 25 5 14
-4 16 -61 16 l-67 0 6 31 c3 17 6 38 6 45 0 11 17 14 65 14 36 0 65 4 65 9 0
5 3 16 6 25 5 14 -6 16 -85 16 -66 0 -91 -3 -91 -12z"/>
<path d="M5000 1811 c0 -11 -37 -269 -45 -318 l-6 -33 68 0 c89 1 144 14 166
41 24 30 23 97 -4 125 -20 21 -20 24 -5 46 20 28 20 86 1 111 -22 30 -175 53
-175 28z"/>
<path d="M7196 1809 c-6 -21 -46 -301 -46 -327 0 -15 6 -22 19 -22 23 0 27 10
36 93 l7 67 47 1 c74 0 113 19 134 61 21 44 16 87 -14 114 -26 23 -176 34
-183 13z"/>
<path d="M2065 1720 c-17 -5 -44 -23 -60 -40 -23 -24 -30 -41 -33 -87 -3 -48
0 -63 18 -85 69 -88 228 -38 245 77 15 96 -72 165 -170 135z m105 -60 c31 -31
27 -85 -9 -121 -75 -74 -187 0 -137 90 28 51 109 68 146 31z"/>
<path d="M2295 1718 c-3 -13 -35 -236 -35 -250 0 -5 9 -8 19 -8 22 0 26 11 36
85 13 101 33 135 83 135 24 0 38 30 20 42 -17 10 -22 10 -52 -2 -17 -6 -26 -6
-26 0 0 15 -40 12 -45 -2z"/>
<path d="M3003 1718 c-27 -13 -43 -56 -32 -85 4 -12 26 -34 49 -49 30 -20 40
-33 38 -48 -4 -27 -41 -33 -74 -11 -43 28 -62 -6 -23 -41 13 -11 35 -19 59
-19 52 0 80 27 80 76 0 37 -20 62 -75 95 -24 14 -13 44 16 44 13 0 30 -7 40
-16 16 -14 18 -14 28 4 8 15 6 23 -7 36 -24 21 -72 28 -99 14z"/>
<path d="M3605 1723 c-62 -17 -105 -76 -105 -146 0 -86 77 -134 166 -104 37
12 44 12 44 1 0 -8 9 -14 20 -14 11 0 20 2 20 5 0 10 30 211 36 238 5 24 3 27
-20 27 -20 0 -26 -5 -26 -22 0 -20 -1 -20 -18 -5 -19 17 -85 29 -117 20z m104
-69 c25 -31 26 -55 7 -93 -28 -54 -110 -68 -151 -26 -35 34 -32 70 9 111 45
45 103 48 135 8z"/>
<path d="M3873 1718 c-27 -13 -43 -56 -32 -85 4 -12 26 -34 49 -49 30 -20 40
-33 38 -48 -4 -27 -41 -33 -74 -11 -43 28 -62 -6 -23 -41 13 -11 35 -19 59
-19 52 0 80 27 80 76 0 37 -20 62 -75 95 -24 14 -13 44 16 44 13 0 30 -7 40
-16 16 -14 18 -14 28 4 8 15 6 23 -7 36 -24 21 -72 28 -99 14z"/>
<path d="M4253 1711 c-55 -26 -83 -71 -83 -134 0 -40 5 -54 28 -77 38 -38 90
-47 147 -26 58 23 76 43 51 62 -16 11 -22 11 -44 -6 -37 -30 -95 -27 -121 6
-12 15 -21 31 -21 35 0 5 49 9 109 9 119 0 126 3 115 59 -15 72 -104 108 -181
72z"/>
<path d="M4523 1718 c-27 -13 -43 -56 -32 -85 4 -12 26 -34 49 -49 30 -20 40
-33 38 -48 -4 -27 -41 -33 -74 -11 -43 28 -62 -6 -23 -41 13 -11 35 -19 59
-19 52 0 80 27 80 76 0 37 -20 62 -75 95 -24 14 -13 44 16 44 13 0 30 -7 40
-16 16 -14 18 -14 28 4 8 15 6 23 -7 36 -24 21 -72 28 -99 14z"/>
<path d="M5245 1718 c-3 -13 -35 -236 -35 -250 0 -5 9 -8 19 -8 22 0 26 11 36
85 13 101 33 135 83 135 24 0 38 30 20 42 -17 10 -22 10 -52 -2 -17 -6 -26 -6
-26 0 0 15 -40 12 -45 -2z"/>
<path d="M5475 1723 c-62 -17 -105 -76 -105 -146 0 -86 77 -134 166 -104 37
12 44 12 44 1 0 -8 9 -14 20 -14 11 0 20 2 20 5 0 10 30 211 36 238 5 24 3 27
-20 27 -20 0 -26 -5 -26 -22 0 -20 -1 -20 -18 -5 -19 17 -85 29 -117 20z m104
-69 c25 -31 26 -55 7 -93 -28 -54 -110 -68 -151 -26 -35 34 -32 70 9 111 45
45 103 48 135 8z"/>
<path d="M5730 1725 c0 -10 -30 -211 -36 -237 -5 -24 -2 -28 18 -28 22 0 25 6
36 82 13 90 30 125 67 134 32 8 71 -2 78 -20 3 -8 0 -55 -7 -105 -12 -91 -12
-91 10 -91 20 0 23 7 34 99 12 90 11 102 -4 126 -9 14 -29 30 -43 36 -28 10
-79 4 -100 -13 -10 -8 -13 -6 -13 6 0 9 -8 16 -20 16 -11 0 -20 -2 -20 -5z"/>
<path d="M6440 1725 c0 -10 -30 -211 -36 -237 -5 -24 -2 -28 18 -28 22 0 25 6
36 82 13 90 30 125 67 134 32 8 71 -2 78 -20 3 -8 0 -55 -7 -105 -12 -91 -12
-91 10 -91 20 0 23 7 34 99 12 90 11 102 -4 126 -9 14 -29 30 -43 36 -28 10
-79 4 -100 -13 -10 -8 -13 -6 -13 6 0 9 -8 16 -20 16 -11 0 -20 -2 -20 -5z"/>
<path d="M6783 1710 c-54 -24 -83 -70 -83 -131 0 -56 25 -93 75 -109 36 -12
90 -6 113 12 22 19 14 -20 -10 -42 -32 -29 -99 -28 -129 4 -23 24 -59 25 -59
1 0 -21 56 -62 94 -69 47 -9 107 8 135 38 17 18 26 50 41 142 26 155 25 174 0
174 -13 0 -20 -7 -20 -19 0 -18 -1 -18 -37 0 -46 24 -67 24 -120 -1z m124 -56
c20 -20 24 -32 19 -57 -15 -78 -121 -117 -165 -61 -30 38 -26 71 13 110 44 44
94 47 133 8z"/>
<path d="M7445 1718 c-3 -13 -35 -236 -35 -250 0 -5 9 -8 19 -8 22 0 26 11 36
85 13 101 33 135 83 135 24 0 38 30 20 42 -17 10 -22 10 -52 -2 -17 -6 -26 -6
-26 0 0 15 -40 12 -45 -2z"/>
<path d="M7665 1720 c-17 -5 -44 -23 -60 -40 -23 -24 -30 -41 -33 -87 -3 -48
0 -63 18 -85 69 -88 228 -38 245 77 15 96 -72 165 -170 135z m105 -60 c31 -31
27 -85 -9 -121 -75 -74 -187 0 -137 90 28 51 109 68 146 31z"/>
<path d="M7977 1716 c-69 -25 -97 -66 -97 -141 0 -38 5 -52 28 -75 49 -48 150
-49 212 0 24 19 25 19 6 33 -17 13 -23 12 -50 -4 -45 -27 -101 -25 -131 6 -35
34 -32 70 9 111 44 44 103 48 143 8 22 -22 28 -24 40 -12 47 48 -76 105 -160
74z"/>
<path d="M8273 1711 c-55 -26 -83 -71 -83 -134 0 -40 5 -54 28 -77 38 -38 90
-47 147 -26 58 23 76 43 51 62 -16 11 -22 11 -44 -6 -37 -30 -95 -27 -121 6
-12 15 -21 31 -21 35 0 5 49 9 109 9 119 0 126 3 115 59 -15 72 -104 108 -181
72z"/>
<path d="M8543 1718 c-27 -13 -43 -56 -32 -85 4 -12 26 -34 49 -49 30 -20 40
-33 38 -48 -4 -27 -41 -33 -74 -11 -43 28 -62 -6 -23 -41 13 -11 35 -19 59
-19 52 0 80 27 80 76 0 37 -20 62 -75 95 -24 14 -13 44 16 44 13 0 30 -7 40
-16 16 -14 18 -14 28 4 8 15 6 23 -7 36 -24 21 -72 28 -99 14z"/>
<path d="M8723 1718 c-27 -13 -43 -56 -32 -85 4 -12 26 -34 49 -49 30 -20 40
-33 38 -48 -4 -27 -41 -33 -74 -11 -43 28 -62 -6 -23 -41 13 -11 35 -19 59
-19 52 0 80 27 80 76 0 37 -20 62 -75 95 -24 14 -13 44 16 44 13 0 30 -7 40
-16 16 -14 18 -14 28 4 8 15 6 23 -7 36 -24 21 -72 28 -99 14z"/>
</g>
</svg>
