<svg id="Layer_1" data-name="Layer 1" xmlns="http://www.w3.org/2000/svg" xmlns:xlink="http://www.w3.org/1999/xlink" viewBox="0 0 400 126.68"><defs><style>.cls-1{fill:url(#linear-gradient);}.cls-2{fill:url(#linear-gradient-2);}.cls-3{fill:#010c48;}</style><linearGradient id="linear-gradient" x1="194.9" y1="54.36" x2="229.95" y2="54.36" gradientUnits="userSpaceOnUse"><stop offset="0" stop-color="#fc4707"/><stop offset="1" stop-color="#ef1c32"/></linearGradient><linearGradient id="linear-gradient-2" x1="226.71" y1="60.61" x2="396.44" y2="60.61" xlink:href="#linear-gradient"/></defs><path class="cls-1" d="M205.88,54.43A7.32,7.32,0,0,1,213,47.86a5.91,5.91,0,0,1,6,6.57A7.2,7.2,0,0,1,211.91,61,6,6,0,0,1,205.88,54.43Zm24-.07c.69-8.37-4.28-16.87-16-16.87S195.65,46,195,54.36s4.49,16.87,16.18,16.87S229.19,62.87,229.89,54.36Z"/><path class="cls-2" d="M396.44,36.9l-26.16,2.71,7.58,7.61A176.47,176.47,0,0,1,347.07,65.7c-1.52.77-3.1,1.38-4.66,2l-2.36,1c-.78.33-1.56.68-2.37,1l-4.8,1.75-1.2.44c-.4.14-.81.26-1.22.39L328,73c-3.24,1.08-6.56,1.86-9.87,2.73-3.34.7-6.68,1.49-10.07,2a148.22,148.22,0,0,1-41.18,1A148.75,148.75,0,0,1,246.44,75a117.59,117.59,0,0,1-19.73-6.86A118.51,118.51,0,0,0,246,76.38a153.33,153.33,0,0,0,20.44,5.3,152.59,152.59,0,0,0,42.38,2c3.56-.26,7.08-.83,10.62-1.32,3.51-.66,7.05-1.23,10.52-2.12l2.61-.61c.44-.11.88-.2,1.31-.32l1.29-.37,5.17-1.47c.87-.23,1.71-.54,2.56-.83l2.55-.86c1.7-.58,3.42-1.12,5.07-1.81A187.45,187.45,0,0,0,386.21,55.6l8.12,8.14Z"/><path class="cls-3" d="M166.41,54.45a7.33,7.33,0,0,1,7.11-6.57,6,6,0,0,1,6,6.57A7.33,7.33,0,0,1,172.44,61,6,6,0,0,1,166.41,54.45Zm16.18-35.14-1.77,21.45c-1.63-1.25-3.67-2.49-9.34-2.49-10.58,0-16.51,8.23-17.19,16.46s3.89,16.46,14.47,16.46a17.26,17.26,0,0,0,9.77-2.69l-.17,2h10.58l4.23-51.19ZM114.33,70.5h11.89L127.75,52c.19-2.35,1.43-5.6,6.27-5.6,4.36,0,4.81,2.9,4.49,6.78L137.08,70.5H149l1.64-19.92c.66-8-2.91-12.45-11.48-12.45-6.16,0-8.88,1.94-10.52,3.46l.24-2.91H117Zm-29.59-16a7.31,7.31,0,0,1,7.11-6.57,6,6,0,0,1,6,6.57A7.31,7.31,0,0,1,90.76,61,6,6,0,0,1,84.74,54.45ZM110.2,38.4H99.62l-.2,2.36c-1.41-1.32-4-2.49-9.33-2.49-10.58,0-16.52,8.23-17.2,16.46s3.9,16.46,14.48,16.46c5.53,0,8.07-1.52,9.76-2.69l-.16,2h10.58ZM44.48,70.5h12l1.34-16.19c.42-5.11,4.8-7.12,8.61-7.12a11.72,11.72,0,0,1,4.09.62l.75-9.06a9.21,9.21,0,0,0-4.35-.9,11.61,11.61,0,0,0-8,3l.19-2.21h-12Zm-29-16a7.33,7.33,0,0,1,7.11-6.57,6,6,0,0,1,6,6.57A7.33,7.33,0,0,1,21.54,61,6,6,0,0,1,15.51,54.45ZM26.25,38.27c-5.67,0-7.92,1.24-9.75,2.49l1.77-21.45H7.7L3.47,70.5H14.05l.16-2c1.5,1.1,4.34,2.69,9.32,2.69C34.11,71.19,40,63,40.72,54.73S36.83,38.27,26.25,38.27Z"/><path class="cls-3" d="M338.64,36.53,339,58.34l12-1.14-.32-21.81,6.73-.64-.14-9.84-6.73.64-.14-9.22-12,1.14.13,9.22-3.88.37.14,9.84Zm-12,.18,2.74-7.43c-3.14-1-5.17-1.71-10.86-1.17-6.66.63-13.55,5-13.44,12.51.07,4.81,3,7.78,9.85,8.16,3.06.19,4.26,1.11,4.28,2.48s-1.29,2.13-3.51,2.34c-3.2.3-6.55-1.17-8.45-2.3l-3.86,6.91a20.41,20.41,0,0,0,13.25,3.08c9.58-.91,14.3-6,14.2-12.72-.06-4.54-3.39-8.63-9.86-9-2.64-.16-3.63-.76-3.64-1.79s.87-2,3.09-2.22A10.94,10.94,0,0,1,326.62,36.71ZM274.53,48.48A7.28,7.28,0,0,1,281,41.32a6,6,0,0,1,6.69,5.91,7.29,7.29,0,0,1-6.49,7.16A6,6,0,0,1,274.53,48.48Zm24-18.26-10.62,1,0,2.34c-1.55-1.16-4.27-2.08-9.62-1.57-10.61,1-15.77,9.7-15.65,17.89s5.52,15.87,16.14,14.86c5.55-.53,8-2.27,9.53-3.59l0,2,10.62-1ZM239.32,46l.32,21.81,12-1.14-.32-21.81,6.8-.64L258,34.35l-6.8.64-.1-6.88c0-2.47,1.54-3.86,4-4.1a11.31,11.31,0,0,1,3.55,0l-.13-8.4a21.19,21.19,0,0,0-5.35-.18c-9.92,1-14.24,4.8-14.13,12.57l.12,8.13-3.89.36.15,9.84Z"/><path class="cls-3" d="M72.38,98.87a5,5,0,0,0-2.53-.66,6.06,6.06,0,0,0-3.09.82l0,.08,0-.08a5.91,5.91,0,0,0-2.24,2.28,6.26,6.26,0,0,0-.82,3.16,4.93,4.93,0,0,0,1.4,3.62,4.79,4.79,0,0,0,3.57,1.42,6.13,6.13,0,0,0,3.12-.79,5.75,5.75,0,0,0,2.2-2.23,6.24,6.24,0,0,0,.82-3.14,5.41,5.41,0,0,0-.64-2.65A4.7,4.7,0,0,0,72.38,98.87Zm-3.55,9.21a3.53,3.53,0,0,1-2.62-1,3.68,3.68,0,0,1-1-2.66,5.07,5.07,0,0,1,.59-2.4,4.28,4.28,0,0,1,1.69-1.71,4.71,4.71,0,0,1,2.34-.62,3.54,3.54,0,0,1,1.79.46,3.22,3.22,0,0,1,1.27,1.29,4.09,4.09,0,0,1,.44,1.92,5.1,5.1,0,0,1-.6,2.42,4.21,4.21,0,0,1-1.62,1.72A4.4,4.4,0,0,1,68.83,108.08Z"/><polygon class="cls-3" points="84.34 94.39 82.32 109.24 82.42 109.24 83.76 109.24 83.83 109.24 85.83 94.39 84.41 94.39 84.34 94.39"/><polygon class="cls-3" points="62.09 94.75 62.03 94.75 57.05 105.23 54.58 94.75 54.25 94.75 54.19 94.75 48.74 105.22 46.78 94.75 45.32 94.75 45.22 94.75 47.92 109.24 47.99 109.24 48.26 109.24 48.31 109.24 53.94 98.6 56.43 109.24 56.76 109.24 56.81 109.24 63.72 94.75 62.09 94.75"/><path class="cls-3" d="M83,98.52l-.08,0a3,3,0,0,0-1.23-.28,3.33,3.33,0,0,0-1.62.43,4.23,4.23,0,0,0-1.16,1L79,98.57v-.09H77.5L76,109.24h1.51l.63-4.56a12.43,12.43,0,0,1,.72-3.1A3.5,3.5,0,0,1,80,100.17a2.32,2.32,0,0,1,1.35-.48,2.23,2.23,0,0,1,.82.2l.06,0,.68-1.32Z"/><path class="cls-3" d="M97.75,94.39h-.07l-.79,6a4.36,4.36,0,0,0-4-2.16,5.87,5.87,0,0,0-4.3,1.84,6.06,6.06,0,0,0-1.82,4.41,4.92,4.92,0,0,0,1.4,3.63,4.83,4.83,0,0,0,3.58,1.42,5.82,5.82,0,0,0,4.13-1.79l-.19,1.42v.1h1.54l2-14.85H97.75Zm-1.14,8.88a5.15,5.15,0,0,1-.62,2.48,4.27,4.27,0,0,1-1.68,1.74,4.58,4.58,0,0,1-2.35.61,3.59,3.59,0,0,1-2.64-1,3.55,3.55,0,0,1-1-2.66,4.64,4.64,0,0,1,1.36-3.4A4.41,4.41,0,0,1,93,99.64a3.61,3.61,0,0,1,2.65,1A3.54,3.54,0,0,1,96.61,103.27Z"/><path class="cls-3" d="M104.91,95.68l.13-1.2v-.09h-1.89l-.39,2.86h.84a5.11,5.11,0,0,1-.26.85,11.58,11.58,0,0,1-.69,1.27l0,.07.78.47.06,0,0-.06a7.85,7.85,0,0,0,1-1.8A11.08,11.08,0,0,0,104.91,95.68Z"/><path class="cls-3" d="M348.85,99.66a2.48,2.48,0,0,1,2.06,1.24l.07.1.81-1.2,0-.06,0,0a4.21,4.21,0,0,0-1.34-1.16,3.28,3.28,0,0,0-1.48-.33,3.24,3.24,0,0,0-2.3.85,2.74,2.74,0,0,0-.91,2.06,2.35,2.35,0,0,0,.44,1.39,6.94,6.94,0,0,0,1.77,1.54,8.74,8.74,0,0,1,1.5,1.18,1.71,1.71,0,0,1,.42,1.08,1.63,1.63,0,0,1-.56,1.23,1.88,1.88,0,0,1-1.32.53,3.24,3.24,0,0,1-2.49-1.4l-.07-.08-.89,1,0,.05,0,.06a4.15,4.15,0,0,0,3.38,1.77,3.46,3.46,0,0,0,2.47-.9,3,3,0,0,0,1-2.27,3.16,3.16,0,0,0-.49-1.75,7.25,7.25,0,0,0-2-1.73,5.49,5.49,0,0,1-1.31-1,1.17,1.17,0,0,1-.29-.76,1.28,1.28,0,0,1,.47-1A1.66,1.66,0,0,1,348.85,99.66Z"/><path class="cls-3" d="M289.78,95.12a7.62,7.62,0,0,0-2.8-.37h-4l-2,14.49h1.61l.93-6.77h2.09a11.92,11.92,0,0,0,3.14-.28,4,4,0,0,0,2.05-1.46,4,4,0,0,0,.81-2.51,3.49,3.49,0,0,0-.51-1.92A3.06,3.06,0,0,0,289.78,95.12Zm-5.35,1.18h2.48a7.36,7.36,0,0,1,2,.19,1.64,1.64,0,0,1,.84.64,2,2,0,0,1,.31,1.11,2.46,2.46,0,0,1-.46,1.46,2.38,2.38,0,0,1-1.2.92,9.27,9.27,0,0,1-2.75.28h-1.9Z"/><path class="cls-3" d="M110,98.54a3.33,3.33,0,0,0-1.49-.33,3.2,3.2,0,0,0-2.29.85,2.71,2.71,0,0,0-.92,2.06,2.35,2.35,0,0,0,.44,1.39,7.13,7.13,0,0,0,1.77,1.54,8.32,8.32,0,0,1,1.5,1.18,1.66,1.66,0,0,1,.42,1.08,1.63,1.63,0,0,1-.56,1.23,1.85,1.85,0,0,1-1.31.53,3.25,3.25,0,0,1-2.5-1.4l-.06-.08-.9,1,0,.05,0,.06a4.15,4.15,0,0,0,3.38,1.77,3.49,3.49,0,0,0,2.48-.9,3,3,0,0,0,1-2.27,3.16,3.16,0,0,0-.49-1.75,7.1,7.1,0,0,0-2-1.73,5.49,5.49,0,0,1-1.31-1,1.23,1.23,0,0,1-.29-.76,1.28,1.28,0,0,1,.47-1,1.69,1.69,0,0,1,1.15-.43,2.48,2.48,0,0,1,2,1.24l.07.1.81-1.2,0-.06,0,0A4.19,4.19,0,0,0,110,98.54Z"/><polygon class="cls-3" points="120.12 94.82 118.17 109.24 119.68 109.24 119.75 109.24 120.68 102.37 126.19 102.37 126.37 100.93 126.38 100.84 120.89 100.84 121.51 96.32 126.99 96.32 127.18 94.84 127.19 94.75 120.13 94.75 120.12 94.82"/><path class="cls-3" d="M342.7,98.54a3.25,3.25,0,0,0-1.48-.33,3.2,3.2,0,0,0-2.29.85,2.71,2.71,0,0,0-.92,2.06,2.35,2.35,0,0,0,.44,1.39,7.13,7.13,0,0,0,1.77,1.54,8.32,8.32,0,0,1,1.5,1.18,1.71,1.71,0,0,1,.42,1.08,1.63,1.63,0,0,1-.56,1.23,1.87,1.87,0,0,1-1.31.53,3.25,3.25,0,0,1-2.5-1.4l-.07-.08-.89,1,0,.05,0,.06a4.15,4.15,0,0,0,3.38,1.77,3.46,3.46,0,0,0,2.47-.9,3,3,0,0,0,1-2.27,3.16,3.16,0,0,0-.49-1.75,7.1,7.1,0,0,0-2-1.73,5.49,5.49,0,0,1-1.31-1,1.17,1.17,0,0,1-.29-.76,1.28,1.28,0,0,1,.47-1,1.66,1.66,0,0,1,1.14-.43,2.48,2.48,0,0,1,2.06,1.24l.07.1.81-1.2,0-.06,0,0A4.21,4.21,0,0,0,342.7,98.54Z"/><path class="cls-3" d="M226.29,98.21a4.81,4.81,0,0,0-3.64,1.77l.18-1.41v-.09h-1.47l-1.45,10.76h1.5l.62-4.65a9.14,9.14,0,0,1,.77-3,3.83,3.83,0,0,1,1.4-1.48,3.73,3.73,0,0,1,2-.54,2.3,2.3,0,0,1,1.71.66,2.37,2.37,0,0,1,.65,1.74,19.3,19.3,0,0,1-.21,2.29l-.67,4.95h1.5l.67-4.93A21,21,0,0,0,230,102a3.76,3.76,0,0,0-1-2.77A3.66,3.66,0,0,0,226.29,98.21Z"/><polygon class="cls-3" points="246.93 98.48 245.47 109.24 245.57 109.24 246.9 109.24 246.97 109.24 248.38 98.48 247 98.48 246.93 98.48"/><path class="cls-3" d="M138.36,98.48h-.07l-.23,1.88a4.54,4.54,0,0,0-1.58-1.59,4.88,4.88,0,0,0-2.37-.56,5.91,5.91,0,0,0-4.31,1.84,6,6,0,0,0-1.83,4.41,4.93,4.93,0,0,0,1.41,3.63,4.84,4.84,0,0,0,3.6,1.42,5.82,5.82,0,0,0,4.09-1.74l-.19,1.37v.1h1.54l1.46-10.76h-1.51Zm-8.88,6a4.64,4.64,0,0,1,1.36-3.4,4.41,4.41,0,0,1,3.28-1.39,3.48,3.48,0,0,1,3.65,3.62,5.19,5.19,0,0,1-.62,2.49,4.34,4.34,0,0,1-1.68,1.74,4.54,4.54,0,0,1-2.34.61,3.59,3.59,0,0,1-2.64-1h0A3.55,3.55,0,0,1,129.48,104.43Z"/><path class="cls-3" d="M272.34,98.48l-.26,1.9a5.36,5.36,0,0,0-1.7-1.61,4.64,4.64,0,0,0-2.28-.56,5.69,5.69,0,0,0-2.93.86,6.3,6.3,0,0,0-2.27,2.26,6,6,0,0,0-.82,3,4.67,4.67,0,0,0,4.94,4.9,5.57,5.57,0,0,0,4.08-1.74l0,.18a10.15,10.15,0,0,1-.52,2.3,3.32,3.32,0,0,1-1.43,1.42,4.76,4.76,0,0,1-2.36.55,3.84,3.84,0,0,1-3.68-2l0-.06-1.28.46-.09,0,0,.09a4.75,4.75,0,0,0,1.94,2.14,6,6,0,0,0,3.1.74,6.09,6.09,0,0,0,3.19-.78,4.55,4.55,0,0,0,1.94-2,11.19,11.19,0,0,0,.72-3.06l1.22-9.06h-1.49Zm-.57,4.72a4.46,4.46,0,0,1-4.61,4.58,3.57,3.57,0,0,1-2.6-.93,3.22,3.22,0,0,1-1-2.45,4.88,4.88,0,0,1,.61-2.41,4.49,4.49,0,0,1,1.74-1.69,4.9,4.9,0,0,1,2.44-.63,3.54,3.54,0,0,1,2.33.9A3.26,3.26,0,0,1,271.77,103.2Z"/><path class="cls-3" d="M256.1,98.21a4.83,4.83,0,0,0-3.65,1.77l.19-1.41v-.09h-1.47l-1.46,10.76h1.51l.62-4.65a9.14,9.14,0,0,1,.77-3,3.79,3.79,0,0,1,3.36-2,2.3,2.3,0,0,1,1.71.66,2.41,2.41,0,0,1,.65,1.74,17.8,17.8,0,0,1-.22,2.29l-.67,4.95H259l.66-4.93a18.73,18.73,0,0,0,.22-2.3,3.71,3.71,0,0,0-1-2.77A3.67,3.67,0,0,0,256.1,98.21Z"/><path class="cls-3" d="M248.07,94.12a1.11,1.11,0,0,0-.83.35,1.17,1.17,0,0,0,0,1.65,1.17,1.17,0,1,0,.83-2Z"/><path class="cls-3" d="M299,98.52l-.08,0a3,3,0,0,0-1.23-.28,3.28,3.28,0,0,0-1.62.43,4,4,0,0,0-1.16,1l.15-1.07v-.09h-1.53l-1.46,10.76h1.5l.63-4.56a12.34,12.34,0,0,1,.73-3.1,3.4,3.4,0,0,1,1.1-1.41,2.32,2.32,0,0,1,1.36-.48,2.19,2.19,0,0,1,.81.2l.07,0L299,98.6Z"/><path class="cls-3" d="M196.45,101.56a3.65,3.65,0,0,0,1.57-1.25,3.59,3.59,0,0,0,.64-2.1,3.26,3.26,0,0,0-.6-2,3.11,3.11,0,0,0-1.58-1.16,12.88,12.88,0,0,0-3.67-.34H190.9l-2,14.49h4.18a10.65,10.65,0,0,0,3.62-.43,3.56,3.56,0,0,0,1.7-1.39,4.13,4.13,0,0,0,.63-2.3,3.65,3.65,0,0,0-.74-2.28A3.89,3.89,0,0,0,196.45,101.56Zm-3.87.87a10.28,10.28,0,0,1,3,.34,2.77,2.77,0,0,1,1.42.9,2.31,2.31,0,0,1,.43,1.45,2.29,2.29,0,0,1-.53,1.58,2.75,2.75,0,0,1-1.57.85,15,15,0,0,1-2.77.17h-1.84l.72-5.29Zm-.29-6.16,1,0a6.41,6.41,0,0,1,3.09.49,1.65,1.65,0,0,1,.7,1.49,2.45,2.45,0,0,1-.45,1.43,2.67,2.67,0,0,1-1.29.95,8.9,8.9,0,0,1-2.76.31c-.33,0-.62,0-.87,0Z"/><path class="cls-3" d="M206.67,98.52l-.08,0a3,3,0,0,0-1.23-.28,3.3,3.3,0,0,0-1.62.43,4.09,4.09,0,0,0-1.16,1l.15-1.07v-.09h-1.53l-1.46,10.76h1.51l.63-4.56a12.43,12.43,0,0,1,.72-3.1,3.56,3.56,0,0,1,1.1-1.41,2.37,2.37,0,0,1,1.36-.48,2.23,2.23,0,0,1,.82.2l.06,0,.68-1.32Z"/><path class="cls-3" d="M321.19,98.9a5.87,5.87,0,0,0-2.88-.69,6.35,6.35,0,0,0-4.58,1.82,5.93,5.93,0,0,0-1.87,4.39,5,5,0,0,0,1.43,3.7,5.48,5.48,0,0,0,4,1.39,7.23,7.23,0,0,0,2.89-.54,6.55,6.55,0,0,0,2.31-1.7l.07-.07-1.2-.84-.07,0,0,.06a4.41,4.41,0,0,1-1.71,1.23,5.68,5.68,0,0,1-2.3.48,4.24,4.24,0,0,1-2-.47,3.22,3.22,0,0,1-1.33-1.33,4,4,0,0,1-.48-2,4.57,4.57,0,0,1,2.42-4,5.22,5.22,0,0,1,2.52-.61,3.86,3.86,0,0,1,3.53,1.87l0,.06,1.2-.69.07,0,0-.07A4.69,4.69,0,0,0,321.19,98.9Z"/><path class="cls-3" d="M216.89,98.48h-.08l-.22,1.88A4.48,4.48,0,0,0,215,98.77a4.84,4.84,0,0,0-2.36-.56,5.9,5.9,0,0,0-4.31,1.84,6,6,0,0,0-1.83,4.41,4.89,4.89,0,0,0,1.41,3.63,4.82,4.82,0,0,0,3.59,1.42,5.76,5.76,0,0,0,4.09-1.75l-.18,1.38v.1h1.54l1.45-10.76h-1.5Zm-.59,4.78a5.19,5.19,0,0,1-.62,2.49,4.4,4.4,0,0,1-1.68,1.74,4.57,4.57,0,0,1-2.34.61,3.48,3.48,0,0,1-3.66-3.67,4.69,4.69,0,0,1,1.37-3.4,4.4,4.4,0,0,1,3.28-1.39,3.48,3.48,0,0,1,3.65,3.62Z"/><path class="cls-3" d="M307.45,98.87a4.94,4.94,0,0,0-2.52-.66,6.08,6.08,0,0,0-5.34,3.1,6.26,6.26,0,0,0-.82,3.16,5,5,0,0,0,1.4,3.62,4.81,4.81,0,0,0,3.57,1.42,6.17,6.17,0,0,0,3.13-.79,5.75,5.75,0,0,0,2.2-2.23,6.24,6.24,0,0,0,.82-3.14,5.41,5.41,0,0,0-.64-2.65A4.66,4.66,0,0,0,307.45,98.87Zm.5,2.55a4,4,0,0,1,.45,1.92,5.1,5.1,0,0,1-.6,2.42,4.3,4.3,0,0,1-1.63,1.72,4.35,4.35,0,0,1-2.27.6,3.5,3.5,0,0,1-2.61-1,3.64,3.64,0,0,1-1-2.66,5,5,0,0,1,.59-2.4,4.19,4.19,0,0,1,1.68-1.71,4.75,4.75,0,0,1,2.35-.62,3.59,3.59,0,0,1,1.79.46l0-.07,0,.07A3.26,3.26,0,0,1,308,101.42Z"/><path class="cls-3" d="M243.25,94.39h-.07l-.8,6a4.82,4.82,0,0,0-1.61-1.6,4.87,4.87,0,0,0-2.36-.56,5.87,5.87,0,0,0-4.29,1.84,6,6,0,0,0-1.83,4.41,4.93,4.93,0,0,0,1.41,3.63,4.8,4.8,0,0,0,3.58,1.42,5.86,5.86,0,0,0,4.13-1.79l-.19,1.42,0,.1h1.54l2-14.85h-1.5Zm-1.14,8.88a5.05,5.05,0,0,1-.63,2.48,4.31,4.31,0,0,1-1.67,1.74,4.6,4.6,0,0,1-2.35.61,3.48,3.48,0,0,1-3.66-3.67,4.61,4.61,0,0,1,1.37-3.4,4.41,4.41,0,0,1,3.28-1.39,3.59,3.59,0,0,1,2.64,1A3.51,3.51,0,0,1,242.11,103.27Z"/><polygon class="cls-3" points="181.21 94.52 179.78 94.52 179.71 94.52 179.17 98.48 177.43 98.48 177.36 98.48 177.19 99.74 177.17 99.83 178.99 99.83 177.72 109.24 179.18 109.24 179.25 109.24 180.5 99.83 182.56 99.83 182.64 99.83 182.8 98.58 182.81 98.48 180.68 98.48 181.21 94.52"/><path class="cls-3" d="M331,98.21a6.31,6.31,0,0,0-6.24,6.21,5.48,5.48,0,0,0,1.27,3.52,4.62,4.62,0,0,0,3.81,1.57,6.26,6.26,0,0,0,2.72-.6,5.58,5.58,0,0,0,2-1.59l.05-.07-1.08-.87-.07-.06-.05.07a4.12,4.12,0,0,1-1.54,1.26,4.68,4.68,0,0,1-2,.45,3.44,3.44,0,0,1-2.64-1,4,4,0,0,1-1-2.82v0h9.43v-.07a7.45,7.45,0,0,0,.07-1,5,5,0,0,0-1.35-3.57A4.61,4.61,0,0,0,331,98.21Zm-.06,1.47a3.24,3.24,0,0,1,2.36.9,3.34,3.34,0,0,1,1,2.28h-7.73a4.61,4.61,0,0,1,1.63-2.3A4.47,4.47,0,0,1,330.92,99.68Z"/><polygon class="cls-3" points="153.76 94.52 152.33 94.52 152.26 94.52 151.72 98.48 149.98 98.48 149.91 98.48 149.73 99.74 149.72 99.83 151.54 99.83 150.26 109.24 151.72 109.24 151.79 109.24 153.05 99.83 155.11 99.83 155.19 99.83 155.35 98.58 155.36 98.48 153.23 98.48 153.76 94.52"/><path class="cls-3" d="M146.57,98.54a3.28,3.28,0,0,0-1.48-.33,3.24,3.24,0,0,0-2.3.85,2.7,2.7,0,0,0-.91,2.06,2.34,2.34,0,0,0,.43,1.39,7.13,7.13,0,0,0,1.77,1.54,8.54,8.54,0,0,1,1.51,1.18,1.77,1.77,0,0,1,.42,1.08,1.7,1.7,0,0,1-.56,1.23,1.88,1.88,0,0,1-1.32.53,3.27,3.27,0,0,1-2.5-1.4l-.06-.08-.89,1-.05.05.05.06a4.14,4.14,0,0,0,3.37,1.77,3.49,3.49,0,0,0,2.48-.9,3,3,0,0,0,.95-2.27,3.15,3.15,0,0,0-.48-1.75,7.18,7.18,0,0,0-2-1.73,5.49,5.49,0,0,1-1.31-1,1.21,1.21,0,0,1-.28-.76,1.28,1.28,0,0,1,.47-1,1.65,1.65,0,0,1,1.14-.43A2.48,2.48,0,0,1,147,100.9l.06.1.81-1.2,0-.06,0,0A4.21,4.21,0,0,0,146.57,98.54Z"/><path class="cls-3" d="M174,98.54a3.28,3.28,0,0,0-1.48-.33,3.24,3.24,0,0,0-2.3.85,2.74,2.74,0,0,0-.91,2.06,2.41,2.41,0,0,0,.43,1.39,7,7,0,0,0,1.78,1.54,8.74,8.74,0,0,1,1.5,1.18,1.71,1.71,0,0,1,.42,1.08,1.63,1.63,0,0,1-.56,1.23,1.88,1.88,0,0,1-1.32.53,3.24,3.24,0,0,1-2.49-1.4l-.07-.08-.89,1,0,.05,0,.06a4.14,4.14,0,0,0,3.37,1.77,3.47,3.47,0,0,0,2.48-.9,3,3,0,0,0,1-2.27,3.25,3.25,0,0,0-.49-1.75,7.25,7.25,0,0,0-2-1.73,5.61,5.61,0,0,1-1.32-1,1.21,1.21,0,0,1-.28-.76,1.28,1.28,0,0,1,.47-1,1.66,1.66,0,0,1,1.14-.43,2.48,2.48,0,0,1,2.06,1.24l.07.1.8-1.2,0-.06,0,0A4.21,4.21,0,0,0,174,98.54Z"/><path class="cls-3" d="M162.3,98.21a6.09,6.09,0,0,0-3.1.82,6.37,6.37,0,0,0-3.14,5.39,5.48,5.48,0,0,0,1.27,3.52,4.62,4.62,0,0,0,3.81,1.57,6.26,6.26,0,0,0,2.72-.6,5.58,5.58,0,0,0,2-1.59l0-.07-1.08-.87-.07-.06-.05.07a4.2,4.2,0,0,1-1.54,1.26,4.68,4.68,0,0,1-2,.45,3.44,3.44,0,0,1-2.64-1,4,4,0,0,1-1-2.81v0H167v-.07a7.45,7.45,0,0,0,.07-1,4.92,4.92,0,0,0-1.36-3.57A4.58,4.58,0,0,0,162.3,98.21Zm-.06,1.47a3.21,3.21,0,0,1,3.34,3.18h-7.73a4.69,4.69,0,0,1,1.64-2.3A4.47,4.47,0,0,1,162.24,99.68Z"/></svg>