<svg id="Layer_1" data-name="Layer 1" xmlns="http://www.w3.org/2000/svg" xmlns:xlink="http://www.w3.org/1999/xlink" viewBox="0 0 408.89 849.78"><defs><style>.cls-1{mask:url(#mask);filter:url(#luminosity-noclip-2);}.cls-2{mix-blend-mode:multiply;fill:url(#linear-gradient);}.cls-3{fill:#fff;}.cls-4{fill:#5240f6;}.cls-5{fill:#ff1d25;}.cls-6{fill:#fec703;}.cls-7{fill:#1ec19b;}.cls-8{fill:#ef3704;}.cls-9{fill:url(#linear-gradient-2);}.cls-10{fill:url(#linear-gradient-3);}.cls-11{fill:url(#linear-gradient-4);}.cls-12{mask:url(#mask-2);}.cls-13,.cls-16{opacity:0.11;}.cls-13{fill:url(#linear-gradient-5);}.cls-14{fill:none;stroke:#1d1d1b;stroke-linecap:round;stroke-miterlimit:10;stroke-width:0.52px;}.cls-15{fill:#1d1d1b;}.cls-16{fill:url(#linear-gradient-6);}.cls-17{fill:url(#linear-gradient-7);}.cls-18{filter:url(#luminosity-noclip);}</style><filter id="luminosity-noclip" x="250.53" y="-8258.83" width="94.13" height="32766" filterUnits="userSpaceOnUse" color-interpolation-filters="sRGB"><feFlood flood-color="#fff" result="bg"/><feBlend in="SourceGraphic" in2="bg"/></filter><mask id="mask" x="250.53" y="-8258.83" width="94.13" height="32766" maskUnits="userSpaceOnUse"><g class="cls-18"/></mask><linearGradient id="linear-gradient" x1="596.79" y1="204.38" x2="691.01" y2="204.38" gradientTransform="translate(-334.51 -98.19) rotate(3.64)" gradientUnits="userSpaceOnUse"><stop offset="0" stop-color="#666"/><stop offset="1" stop-color="#fff"/></linearGradient><linearGradient id="linear-gradient-2" x1="287.55" y1="250.01" x2="287.5" y2="253.96" gradientUnits="userSpaceOnUse"><stop offset="0.04" stop-color="#df0000"/><stop offset="1" stop-color="#ff1d25"/></linearGradient><linearGradient id="linear-gradient-3" x1="582.96" y1="189.72" x2="699.81" y2="189.72" gradientTransform="translate(-334.51 -98.19) rotate(3.64)" gradientUnits="userSpaceOnUse"><stop offset="0" stop-color="#ff1d25"/><stop offset="0.96" stop-color="#ff1d25"/></linearGradient><linearGradient id="linear-gradient-4" x1="267.87" y1="231.3" x2="307.11" y2="231.3" gradientTransform="matrix(1, 0, 0, 1, 0, 0)" xlink:href="#linear-gradient-3"/><filter id="luminosity-noclip-2" x="250.53" y="61.49" width="94.13" height="170.4" filterUnits="userSpaceOnUse" color-interpolation-filters="sRGB"><feFlood flood-color="#fff" result="bg"/><feBlend in="SourceGraphic" in2="bg"/></filter><mask id="mask-2" x="250.53" y="61.49" width="94.13" height="170.4" maskUnits="userSpaceOnUse"><g class="cls-1"><path class="cls-2" d="M293.5,231.88a5.8,5.8,0,1,1,4.22-1.43A5.27,5.27,0,0,1,293.5,231.88Zm-1.11-42c-.8-.05-.93-.19-1.1-.38s-.22-.25-.18-.94c.73-11.38,5.87-21.17,15.74-29.91L327,142.16l.22-.21A44,44,0,0,0,342,111.43a42.89,42.89,0,0,0-2.51-17.55,45.44,45.44,0,0,0-22-25,42.82,42.82,0,0,0-17.09-4.71,43.92,43.92,0,0,0-17.57,2.41,45.48,45.48,0,0,0-14.61,8.49,44.13,44.13,0,0,0-15.06,30.7,1.28,1.28,0,0,1-.06.33,2.73,2.73,0,0,1-.58.77.73.73,0,0,1-.24.13,1.53,1.53,0,0,1-.56,0c-.69,0-.78-.14-.91-.29s-.29-.34-.24-1.14a44.4,44.4,0,0,1,4.84-17.89,49.31,49.31,0,0,1,11.19-14.44,48.25,48.25,0,0,1,15.69-9.19,44.78,44.78,0,0,1,18.28-2.5,43.32,43.32,0,0,1,17.71,4.87,50,50,0,0,1,14.49,11.27A49.22,49.22,0,0,1,342,93.48a43.78,43.78,0,0,1,2.55,18.12c-.81,12.86-6,23.48-15.93,32.46l-20,16.22-.17.15c-9.13,8-14.11,17.55-14.79,28.25-.05.74-.17.85-.31,1S293.13,189.88,292.39,189.83Z"/></g></mask><linearGradient id="linear-gradient-5" x1="596.79" y1="183.43" x2="691.01" y2="183.43" gradientTransform="translate(-334.51 -98.19) rotate(3.64)" gradientUnits="userSpaceOnUse"><stop offset="0" stop-opacity="0"/><stop offset="1"/></linearGradient><linearGradient id="linear-gradient-6" x1="288.02" y1="224.11" x2="301.35" y2="224.11" gradientTransform="matrix(1, 0, 0, 1, 0, 0)" xlink:href="#linear-gradient-5"/><linearGradient id="linear-gradient-7" x1="331.93" y1="291.37" x2="342.4" y2="291.37" gradientTransform="matrix(1, 0, 0, 1, 0, 0)" xlink:href="#linear-gradient-3"/></defs><path class="cls-3" d="M86.72,403.84s-10.49,7.69-11.19,13.29,5.6,9.09,14,9.79c0,0,5.6,35,12.59,47.56s11.89,11.19,20.28,7.7,16.09-16.79,16.09-16.79,1.4,17.49,2.8,20.28l4.2-4.19s-7,64.35-6.3,81.13,4.2,58.75,4.2,68.55-1.4,45.46,0,53.15,11.19,44.77,11.89,51.06c0,0-11.19,9.79-9.1,16.09a21.39,21.39,0,0,0,7,9.79s-9.79,11.89-6.3,14.69,10.5,2.1,10.5,2.1-11.89,5.59-14,23.08c0,0,34.27,2.1,45.46-.7,0,0,.35-15.74-11.54-22.73,0,0,8.39,0,8.39-4.2S181.5,763,181.5,763s15.38-8.39,14-20.29-4.89-21-4.89-37.76V675.57s.7-39.87,1.4-44.06,3.49-43.37,7-42.67,4.9,42.67,4.9,42.67v16.08c0,.7,3.49,36.37,3.49,44.07s-.69,38.47.7,47.56,4.9,16.78,11.19,21c0,0-11.19,20.28-3.49,20.28,0,0-4.9,17.49-3.5,21,0,0,54.56,1.4,73.44,0,0,0,2.8-10.49-12.59-16.09,0,0-16.09-2.8-21.68-7,0,0,7.69,0-4.2-14,0,0,12.59,0,10.49-5.6s-9.09-25.88-9.79-32.87c0,0,7-15.39,7.7-28.68s-1.4-44.06-1.4-44.06-2.1-42-1.4-49,.7-48.26.7-48.26-1.4-21.69-3.5-36.37l-4.9-34.28,2.8,5.6,2.1-5.6s11.19,10.5,18.19,7.7,16.78-14.69,24.48-36.37c0,0,9.09.7,9.79-2.1s.7-7.69,2.79-9.79,3.5-5.6-4.19-9.79a8.87,8.87,0,0,0,1.4-4.2,6.25,6.25,0,0,1,0-1.88c.16-.51.44-1,.61-1.47a4.63,4.63,0,0,0-.85-4.1,10.35,10.35,0,0,1-1.6-2.25,11.06,11.06,0,0,1-.36-1.51,6.73,6.73,0,0,0-4.52-4.51,11.75,11.75,0,0,0-6.57,0s-3.48-4.6-8.38-1.81-5.59,16.79-5.59,16.79-2.8.7-3.5,2.1c0,0-5.59-18.19-10.49-23.78v-2.8l-5.59-7a5.36,5.36,0,0,1,4.19-.7c2.1.7,6.3,2.09,5.6-.7s-7.7-7.7-7.7-7.7,2.1-2.8-9.09-9.09c0,0,6.3,2.1,3.5-2.8s-15.39-9.09-19.59-9.79c0,0,7-.7,9.8-7s-.7-9.1-2.1-9.8l.7-2.09s7.69,1.39,9.79-2.1,0-10.49,0-10.49,8.39,4.89,11.19-1.4-.7-13.29-.7-13.29,14-2.1,11.89-14-11.89-20.28-22.38-9.09c0,0-1.4-9.1-9.09-6.3,0,0,0-9.09-6.3-9.09s-10.49,6.29-10.49,6.29-1.4-18.18-21-11.19-9.1,21.69-9.1,21.69-9.09-1.4-11.19,7,4.2,9.09,4.2,9.09-3.5,4.9-.7,11.89c0,0-4.89-.7-7,7.7a11.69,11.69,0,0,0,4.19,12.59l-3.49,7s-20.29-1.4-21.69,2.1-1.39,4.2-1.39,4.2-9.1,0-9.1,1.39,3.5,4.9,3.5,4.9-10.49,1.4-10.49,2.8,4.19,8.39,4.19,8.39-9.79,3.5-9.79,8.39c0,0-3.49,2.8-7,11.2S120,427.27,120,427.27l-8.4-15.39s.7-11.89-.7-12.59-7,0-7,0,6.29-4.19,7.69-7,3.5-5.6,4.9-6.29,6.29-2.1,4.89-4.9-7.69-9.09-15.38,4.2a5.56,5.56,0,0,1-2.8-4.9c0-3.5,0-15.39-2.1-20.28s-7-3.5-7,1.4,1.4,16.78,0,16.08-2.1-4.89-2.8-9.09-.7-14-4.2-14-5.59,2.8-4.89,7.69,3.49,17.49,2.09,16.79-4.19-16.79-7-16.79-4.9,2.1-4.2,4.9,6.3,14,4.9,14.69-4.9-11.89-9.09-9.09,2.1,7.69,2.1,7.69l6.29,9.09S82.18,401.39,86.72,403.84Z"/><path class="cls-4" d="M260.88,412.23s7.69,15.39,9.79,23.78c0,0,1.4-5.59,4.9-7,0,0,0,7,3.5,12.59,0,0-4.2,3.5.7,8.39s13.28,2.1,13.28,2.1,9.1-3.5,2.1-7.69l4.2-5.6V436l1.4-.69s4.2,4.89,2.8,7a15,15,0,0,0-2.8,8.39c0,3.5-3.2,5.38-10.69,6.54,0,0-15.19,36.83-27.78,36.13s-13.06-5.86-13.06-5.86,5-26.67,8.51-48.35S260.88,412.23,260.88,412.23Z"/><path class="cls-5" d="M218.22,780.83l-1,4.66s8,.24,10.79,10c0,0,21.68.7,35.67.7s21.3-1.43,21.3-1.43-4.51-8.36-12.21-9.76-19.58-4.9-21.33-6.64C251.44,778.39,226.61,782.23,218.22,780.83Z"/><path class="cls-5" d="M148.27,794.82s4.2-12.59,12.59-16.08l18-.73s8.6,9.82,9.3,17.51C188.14,795.52,155.27,796.92,148.27,794.82Z"/><path class="cls-6" d="M148.27,479.38s-7,67.14-7,77.64,4.89,67.14,4.89,74.84-1.39,43.36-.69,50.35,12.58,50.36,12.58,53.86-2.79,8.39-2.79,8.39v-5.59s-13.29,9.79-.7,21.68c0,0-8.9,14.43-4.1,16.66s34.17,2.92,37-2.67-2.1-13.29-2.1-13.29,14-8.39,13.29-16.79-5.24-22-5.94-36,2.09-34.27,1.4-43.36,0-29.38.69-35,3.5-43.37,6.3-42.67,6.29,40.57,5.6,49.66,2.09,31.48,2.09,31.48,2.8,21,2.1,27.27-.7,44.77,1.4,51.76,9.53,12.67,14.56,15.08l-4.77-1.09s-8.68,18.54-5.74,19.41,40-.53,40.71-4-6.75-12.55-6.75-12.55,10.25,0,10.25-4.94S250,730.13,250,726.63c0,0,6.29-11.89,8.39-24.48s-1.4-46.86-2.1-57.36-1.39-37.76-.69-41.26,2.09-41.27,1.39-51.06-7.53-56.25-9.36-62.75.27-70.14.27-70.14l-.7-16.09L199,393.7,166.08,389l-14.66,13.75,7,49Z"/><path class="cls-7" d="M245.49,405.94s.7,22.38-4.89,37.77S232.35,466,232.35,466s13.84,18.3,14.54,21.09,2.1,4.9,2.8,4.9,4.9-11.19,9.09-39.87,4.9-44.76,4.9-44.76l-8.39-8.4Z"/><path class="cls-7" d="M192.34,331.1s-2.1-3.5-5.6-3.5c0,0-2.8-9.79,2.8-13.29,0,0-7.37-4.73-3-12.5s11.38-2.88,11.38-2.88-9.94-14,7.62-21,21.06,4.2,22.46,11.89c0,0,9.09-9.09,12.59-6.29s3.49,11.19,3.49,11.19,1.75-2.81,6.12-.71,3.68,7,3.68,7,8.88-11.42,18.08,2.69-2,20.4-10.39,21.1c0,0,6.3,16.78-11.19,11.89,0,0,7,15.38-9.09,12.59l3.14-10.15s-7.69-5.59-4.19-14c0,0-4.9-.7-4.9-5.6,0,0-11.19,8.39-26.58-7,0,0-.7,12.59-12.59,7.69Z"/><path class="cls-7" d="M139.74,382.19s-.56,20.25.14,46.83,3.64,54.35,3.64,54.35,18-15.18,34.83-21.48c0,0-15.38-35.78-18.53-64.4s-13.65-18.83-13.65-18.83Z"/><path class="cls-8" d="M191.12,430.57c-1.12.47-2.37.95-2.94,2a4,4,0,0,0,.38,3.6,15.76,15.76,0,0,1,1.7,3.35,15.22,15.22,0,0,1,.28,2.62,10.33,10.33,0,0,0,4.59,7.57,17,17,0,0,0,5.84,2.14,19.37,19.37,0,0,0,6.82.45,20.66,20.66,0,0,0,4.13-1.17c1.44-.54,3-1.27,3.6-2.69s.12-2.71.23-4.08A13.75,13.75,0,0,1,217.3,440a14.78,14.78,0,0,0,1.48-7.9,8.11,8.11,0,0,0-4.41-6.42c-2-.87-4.2-.71-6.33-.94a17.44,17.44,0,0,1-4-.9,3.18,3.18,0,0,0-1.31-.28c-.68.06-1.23.59-1.87.82-1,.33-2,0-3,0a4.15,4.15,0,0,0-3.69,2.74C193.54,428.85,193,429.81,191.12,430.57Z"/><path class="cls-4" d="M195.25,472.21c-1.21-.18-2.53-.4-3.57.24a4,4,0,0,0-1.51,3.29,16.62,16.62,0,0,1-.25,3.74,15.71,15.71,0,0,1-1.1,2.4,10.31,10.31,0,0,0,.07,8.85,16.86,16.86,0,0,0,3.93,4.82,19.16,19.16,0,0,0,5.62,3.88,19.85,19.85,0,0,0,4.15,1.1c1.52.28,3.24.46,4.47-.46s1.5-2.27,2.29-3.39a13.68,13.68,0,0,1,3.58-3,14.84,14.84,0,0,0,5.31-6,8.09,8.09,0,0,0-.51-7.77c-1.24-1.75-3.24-2.76-4.95-4a17.56,17.56,0,0,1-3-2.82,3.16,3.16,0,0,0-1-.91,9,9,0,0,0-2-.25c-1-.2-1.7-1.05-2.58-1.55a4.15,4.15,0,0,0-4.58.46C198.21,472,197.22,472.5,195.25,472.21Z"/><path class="cls-7" d="M195.37,538c.41,1.14.83,2.42,1.88,3a4,4,0,0,0,3.62-.2,15.88,15.88,0,0,1,3.42-1.54,15.36,15.36,0,0,1,2.63-.15,10.38,10.38,0,0,0,7.79-4.23,16.75,16.75,0,0,0,2.41-5.72,19.58,19.58,0,0,0,.79-6.79,20.79,20.79,0,0,0-1-4.18c-.48-1.47-1.12-3.07-2.52-3.73-1.24-.59-2.7-.25-4.06-.43a13.54,13.54,0,0,1-4.33-1.76,14.85,14.85,0,0,0-7.82-1.86,8.13,8.13,0,0,0-6.62,4.1c-1,1.92-.92,4.15-1.25,6.27a17.24,17.24,0,0,1-1.09,3.93,3.18,3.18,0,0,0-.34,1.29c0,.69.53,1.26.73,1.91.28,1-.13,2-.17,3A4.15,4.15,0,0,0,192,534.8C193.76,535.52,194.7,536.14,195.37,538Z"/><path class="cls-4" d="M151.77,367.47c0,.7-11.19,1.4-10.49,2.8s6.29,10.49,7.69,13.29,7.7,13.29,11.89,13.29,6.3-6.3,12.59-4.2,2.8,11.19,6.3,14,8.39,2.1,11.19,4.89,3.5,7,10.49,6.3,9.79-2.1,11.89-3.5,4.2-2.8,6.29-2.8,6.3,1.4,7.7-1.39,2.8-6.3,7-6.3,7.7,3.5,10.49,2.1,10.61-8.77,14-8.23,6.94,1.23,6.24-.86-7.7-8.4-10.49-9.1-46.87,5.6-46.87,5.6l-28.67-10.49Z"/><path class="cls-7" d="M158.76,361.88s-9.79,0-9.79,1.39c0,0,4.9,7.7,7,11.89s5.73,16,8.81,15,9.37-3.8,11.47-1.71,4.2,11.89,7,14.69,6.3,4.9,8.4,4.9,7-2.1,11.89-.7,11.19,2.1,13.29,0,2.1-7,5.59-8.4,16.79,2.1,20.29,0,5.59-3.49,6.29-5.59-.7-2.8,2.1-2.8,8.75.55,6.47-2.87-19.06-11.82-19.06-11.82l-19.58,11.19-28.68,2.8-16.09-18.18Z"/><path class="cls-8" d="M231.51,368.17s-.7,3.5-9.1,12.59c-10.06,10.9-25.18,3.5-25.18,3.5-17.48-4.9-20.28-18.19-20.28-18.19l3.85-10.84s-20.64-3.15-22,3.85,1.4,12.59,9.1,14c3.51.63,11.19,2.09,12.59,7.69s2.09,11.19,8.52,12c4,.53,11.06-3.65,12.46-.85s7,13.29,11.19,10.49.7-4.89,1.4-7.69,1.43-5.19,8.39-4.2c4.9.7,16,6.48,18.19,2.1,2.1-4.2-6.38-9.13-4.9-12.59,2.1-4.9,16.25,4.24,17.49-.7C253.89,376.56,240.25,369.22,231.51,368.17Z"/><path class="cls-4" d="M86,405.94c0,.7-15.32,12.75-4.51,18.62,0,0,5.91,2.36,10.11,2.36,0,0,9.17,56.31,23.47,57.18s23.54-13.17,23.54-13.17l-2.95-79.68S125.54,411.18,122,430.77l-10.49-18.89s.7-11.19-.7-11.89A28.18,28.18,0,0,0,106,398.6l-2.1.69s5.59,5.6-6.3,8.4S86,405.94,86,405.94Z"/><path class="cls-8" d="M229.41,354.88a8.4,8.4,0,1,0-8.4,8.39A8.4,8.4,0,0,0,229.41,354.88Z"/><path class="cls-8" d="M240.6,311.52c4.1-8.2,3.75-16.69,3-21.62-.45-2.38-1.32-5-3-6.36-3.5-2.8-12.59,6.29-12.59,6.29-1.4-7.69-4.9-18.88-22.46-11.89s-7.62,21-7.62,21-7-4.9-11.38,2.88,3,12.5,3,12.5c-5.6,3.5-2.8,13.29-2.8,13.29,3.5,0,5.6,3.5,5.6,3.5l3.84-10.84c11.89,4.9,12.59-7.69,12.59-7.69,11.36,11.35,20.42,9.76,24.39,8.14A27.36,27.36,0,0,0,240.6,311.52Z"/><path d="M245.34,349.94a16.57,16.57,0,0,1-1.67-.1.88.88,0,1,1,.2-1.74c2.75.32,4.69-.21,5.74-1.57,2-2.58.65-7.84,0-9.65a.89.89,0,0,1,.2-.93.87.87,0,0,1,.92-.2c4.69,1.71,7.95,1.7,9.69,0,3-3,1.14-10.71.17-13.45a.86.86,0,0,1,.6-1.13c5.67-1.5,9.36-4.13,10.68-7.62,1.45-3.81.23-8.67-3.63-14.46-2-3-4.35-4.62-6.95-4.79-5.15-.32-9.87,5-9.92,5.05a.88.88,0,0,1-1,.24.87.87,0,0,1-.56-.83s0-3.26-2.09-4.9c-3.07-2.39-5.09-.68-5.12-.66a.87.87,0,0,1-1.43-.52c-.84-5-2.45-7.93-4.78-8.58-3.67-1-8.78,3.74-10.43,5.66a.87.87,0,0,1-1.53-.45c0-.07-1-7.25-6.49-10.44-3.66-2.15-8.52-2.06-14.43.27s-9.55,5.52-10.59,9.44c-1.49,5.62,2.77,11,2.81,11.06a.87.87,0,0,1-.87,1.4c-.27-.06-6.6-1.35-8.9,3.53-1.32,2.8-1.62,5.25-.88,7.27a6.5,6.5,0,0,0,3,3.45.89.89,0,0,1,.49.61.87.87,0,0,1-.19.76,8.28,8.28,0,0,0-1.09,7.73.86.86,0,0,1-.57,1.09.88.88,0,0,1-1.1-.57,10.35,10.35,0,0,1,.85-8.55,8.23,8.23,0,0,1-3.06-3.92c-.91-2.48-.59-5.38.93-8.61,1.86-3.93,5.94-4.84,8.89-4.73-1.33-2.23-3.23-6.45-2-11s5.1-8.06,11.64-10.63,11.82-2.58,16-.14c4.49,2.64,6.3,7.45,7,10,2.15-2.13,6.88-6.13,11-5,2.83.79,4.78,3.73,5.81,8.76,1.43-.55,3.66-.62,6.13,1.3a7.38,7.38,0,0,1,2.54,4.39c1.93-1.75,5.75-4.59,10-4.31,3.18.2,6,2.07,8.3,5.56,4.19,6.29,5.47,11.69,3.82,16.05-1.48,3.9-5.18,6.74-11,8.44.82,2.7,2.83,10.73-.87,14.39-2,2-5.35,2.33-9.87,1,.65,2.42,1.41,6.89-.75,9.66C249.79,349.16,247.89,349.94,245.34,349.94Z"/><path d="M214.26,339.8c1.43-3.33,1.3-6.58-.28-7.26s-4,1.47-5.46,4.79-1.3,6.58.28,7.26S212.83,343.13,214.26,339.8Z"/><path d="M232.59,348c1.31-3.06,1.2-6-.26-6.67s-3.7,1.35-5,4.41-1.2,6,.26,6.66S231.28,351.09,232.59,348Z"/><path d="M239.55,340a.81.81,0,0,1-.45-.13c-2.61-1.56-8-.6-9.86-.09a.87.87,0,1,1-.45-1.69c.3-.08,7.43-2,11.21.28a.88.88,0,0,1-.45,1.63Z"/><path d="M206.52,377.09a6.91,6.91,0,0,1-3.22-.76c-9.2-4.7-7.37-29.89-7.29-31a.88.88,0,0,1,1.72-.16c3.07,11.52,12.65,23.13,27.13,23.13a.88.88,0,0,1,0,1.75c-13.48,0-23-9.39-27.28-19.88,0,2.37,0,5.41.29,8.55.77,8.79,2.92,14.32,6.23,16,2.87,1.47,6.85.08,11.8-4.12a.87.87,0,0,1,1.23.1A.86.86,0,0,1,217,372C213,375.38,209.51,377.09,206.52,377.09Z"/><path d="M255.2,797.34c-15.65,0-29.65-.59-29.86-.59a.88.88,0,0,1-.81-.69c-2.14-9.54-9.77-9.68-10.21-9.68h0a.87.87,0,0,1-.68-.34.88.88,0,0,1-.17-.75l.5-2c.25-1,.48-1.94.68-2.72a.87.87,0,1,1,1.69.43c-.2.78-.42,1.68-.68,2.71l-.24,1a12.34,12.34,0,0,1,4,1.27c2.33,1.2,5.34,3.75,6.72,9,4.64.19,32.78,1.21,52.4,0a.89.89,0,0,1,.93.82.87.87,0,0,1-.82.92C271.41,797.19,263.09,797.34,255.2,797.34Z"/><path d="M246.17,803.44c-10.67,0-22.51-.28-34.83-1.1a.92.92,0,0,1-.61-.3.9.9,0,0,1-.21-.65s.47-5.3,1.56-10.62a.88.88,0,0,1,1.72.35c-.81,3.94-1.27,7.83-1.45,9.53,31.06,2,59,.62,72.44-.06.28,0,.44-.55.47-1.07.23-3.74-4.35-12-16-14-8.36-1.45-14.31-3.36-18.17-5.83a.87.87,0,0,1-.27-1.2.87.87,0,0,1,1.21-.27c3.67,2.34,9.4,4.17,17.53,5.58,12.85,2.23,17.68,11.4,17.41,15.81-.12,1.92-1.18,2.66-2.13,2.71C276.57,802.76,262.79,803.44,246.17,803.44Z"/><path d="M161.91,803a127.59,127.59,0,0,1-19-1.16.92.92,0,0,1-.58-.36.86.86,0,0,1-.14-.66A46.23,46.23,0,0,1,145,792c1.89-4.45,5.31-10.5,10.87-14.1a.88.88,0,0,1,1,1.47c-8.57,5.54-11.91,17.55-12.7,20.9,16.15,2.33,43.56-.12,43.84-.14a.86.86,0,0,1,.95.79.88.88,0,0,1-.79,1C187.91,801.84,175.18,803,161.91,803Z"/><path d="M167.15,796.62c-5.53,0-11.35-.17-16.37-.66a.87.87,0,0,1-.78-1,.88.88,0,0,1,.95-.79c13,1.28,31.6.32,36,.06-1.44-7.48-4.74-12.67-9.82-15.43a.87.87,0,0,1,.83-1.54c5.8,3.15,9.46,9.09,10.88,17.64a.84.84,0,0,1-.18.68.82.82,0,0,1-.62.33C187.93,796,178.11,796.62,167.15,796.62Z"/><path d="M175.37,370.84a.83.83,0,0,1-.34-.07.88.88,0,0,1-.47-1.14l8.78-21.31c-1.89-1.32-6.81-5.75-3.89-14.43,1.32-3.94,3.94-6.58,6.83-6.89a6.23,6.23,0,0,1,5.52,2.61l3.91-9.51a.88.88,0,0,1,1.14-.48s4.14,1.66,7.27.19a6.1,6.1,0,0,0,3.17-3.94.88.88,0,1,1,1.67.53,7.79,7.79,0,0,1-4.11,5c-2.92,1.36-6.3.61-7.83.13l-4.22,10.23a.85.85,0,0,1-.74.54.88.88,0,0,1-.82-.42c-1.31-2.22-3-3.33-4.78-3.14-2.2.24-4.25,2.42-5.35,5.71-1.3,3.86-1.06,7.19.71,9.88a9.17,9.17,0,0,0,3,2.87.87.87,0,0,1,.41,1.11l-9,22A.88.88,0,0,1,175.37,370.84Z"/><path d="M207.87,387.85c-5,0-10.1-2.08-15.6-6.23-4.65-3.5-7.4-9.73-8-18a50.69,50.69,0,0,1,.52-11.47.86.86,0,0,1,1-.7.87.87,0,0,1,.71,1c0,.2-3.51,20,6.78,27.8,11.39,8.58,20.65,7.81,31-2.58,6.72-6.78,17.56-33.49,19.31-37.87-1.86-1.53-7.6-7-4.49-13.88-1.34-.71-3.82-2.38-4.5-5.21-3.39,1.87-13.37,5.47-25.77-7.18a.86.86,0,0,1,0-1.23.87.87,0,0,1,1.23,0c5.91,6,12.09,9,17.83,8.6a13.09,13.09,0,0,0,6.84-2.36.88.88,0,0,1,.92-.11.86.86,0,0,1,.5.79c0,3.68,4.38,5.45,4.43,5.47a.87.87,0,0,1,.44,1.23,8.35,8.35,0,0,0,.53,9.09,15.24,15.24,0,0,0,3.58,3.78.87.87,0,0,1,.31,1c-.5,1.29-12.4,31.46-19.94,39.07C219.58,384.87,213.83,387.85,207.87,387.85Z"/><path d="M237.15,367.07a.9.9,0,0,1-.79-.48.89.89,0,0,1,.4-1.18c3.08-1.52,5.61-5.87,6.05-9,.48-3.43-2.93-4.47-3.07-4.51a.88.88,0,0,1,.49-1.68,5.89,5.89,0,0,1,4.31,6.43c-.5,3.54-3.32,8.49-7,10.31A.92.92,0,0,1,237.15,367.07Z"/><path d="M220,335.12a.87.87,0,0,1-.87-.87c0-.09-.06-8.54-4.37-10.39a.88.88,0,0,1,.69-1.61c5.37,2.3,5.43,11.6,5.43,12a.87.87,0,0,1-.87.87Z"/><path d="M219.26,363.1a9.27,9.27,0,1,1,9.27-9.27A9.28,9.28,0,0,1,219.26,363.1Zm0-16.79a7.52,7.52,0,1,0,7.52,7.52A7.53,7.53,0,0,0,219.26,346.31Z"/><path d="M212.27,373.24a.52.52,0,0,1-.52-.52v-3.35l-6.24,3.12a.53.53,0,0,1-.53,0,.56.56,0,0,1-.23-.49l.65-6.41h-3.62a.53.53,0,0,1-.53-.53V360H199a.52.52,0,0,1-.52-.61l1-6.19a.52.52,0,0,1,1,.17l-.9,5.58h2.18a.52.52,0,0,1,.52.53v5.07H206a.5.5,0,0,1,.38.17.55.55,0,0,1,.14.4l-.61,6.05,6.15-3.07a.54.54,0,0,1,.51,0,.55.55,0,0,1,.25.45v4.2A.52.52,0,0,1,212.27,373.24Z"/><path d="M89.43,405.48h-.09c-6-.6-9.27-8-11.67-13.45-.39-.87-.75-1.69-1.09-2.39-.57-.75-5.65-7.51-8.8-11.43A4.45,4.45,0,0,1,66.71,374a4.83,4.83,0,0,1,3.39-3c2-.56,4.36,2.7,6.36,6.29-.9-2.16-2-4.5-2.64-5.91s-1.2-2.57-1.52-3.35a4.84,4.84,0,0,1,.22-4.53c.58-.87,1.82-1.9,4.41-1.9h0c2.53,0,3.88,4.23,5.66,10.7a52.22,52.22,0,0,0,1.71,5.49c0-1.65-.49-5.41-2.16-12.61-1.1-4.78-1-7.69.27-9.43s3.15-1.93,4.73-2h.17c3.17,0,4,6.39,4.9,13.77.45,3.6,1,8,1.8,9.32.43-1.57.24-6.53-.29-9.64-.39-2.27-1-7.81,1.55-10a4.21,4.21,0,0,1,4.33-.55c4.12,1.37,4.16,19.09,4.07,24.63A4.09,4.09,0,0,0,105,384a1.65,1.65,0,0,0,.81.31c3.72-7.25,8-8.05,10.22-7.88a7,7,0,0,1,6,4.45c.91,3-1.25,3.89-3.15,4.69s-4.22,1.77-5.7,4.72c-2.65,5.29-4.48,6.49-7.24,8.3-1,.67-2.17,1.43-3.56,2.53a.88.88,0,0,1-1.23-.15.87.87,0,0,1,.15-1.22c1.44-1.15,2.63-1.93,3.68-2.62,2.61-1.72,4.2-2.76,6.63-7.62,1.78-3.53,4.56-4.7,6.59-5.55,2.18-.91,2.57-1.21,2.16-2.58a5.33,5.33,0,0,0-4.51-3.2c-3.15-.26-6.29,2.36-8.75,7.37a.85.85,0,0,1-.59.47,3.39,3.39,0,0,1-2.52-.56,5.67,5.67,0,0,1-2.09-4.06.61.61,0,0,1,0-.14c.18-10.55-.87-22.34-2.87-23a2.62,2.62,0,0,0-2.64.21c-1.28,1.1-1.66,4.4-1,8.41a47.15,47.15,0,0,1,.56,6.45c0,4.07-.59,5-1.22,5.34a1.44,1.44,0,0,1-1.72-.3c-1.34-1.18-1.85-4.82-2.59-10.67-.53-4.28-1.53-12.23-3.18-12.23h0c-1.79.13-2.85.54-3.44,1.34-1,1.28-.94,3.82,0,8,3.24,14,2.11,14.82,1.5,15.28a1.27,1.27,0,0,1-1.43,0c-1.13-.65-1.81-3-3-7.34-.9-3.29-2.58-9.41-4-9.42h0a3.51,3.51,0,0,0-3,1.14,3.12,3.12,0,0,0,0,2.89c.3.74.85,1.91,1.48,3.27,3.64,7.82,5,11.29,4,12.55a1.34,1.34,0,0,1-1.35.45.89.89,0,0,1-.63-.5c-2.8-6.2-5.92-10.64-6.85-10.46a3.11,3.11,0,0,0-2.2,1.85,2.92,2.92,0,0,0,.76,2.62c3.34,4.16,8.83,11.47,8.89,11.55l.09.14c.36.74.74,1.61,1.14,2.52,2.23,5,5.29,11.92,10.26,12.42a.87.87,0,0,1-.09,1.74Z"/><path d="M90.31,409.51c-2.28,0-3.72-.53-4.37-1.59a3.43,3.43,0,0,1,.42-3.54.88.88,0,0,1,1.43,1h0c-.15.22-.66,1.13-.35,1.62.17.29,1.11,1.18,5.8.51,6.68-.95,10.71-3.56,11.23-5.65a2.13,2.13,0,0,0-1.1-2.27.87.87,0,0,1,1-1.41,3.85,3.85,0,0,1,1.77,4.11c-.8,3.19-5.9,6-12.68,6.95A23.06,23.06,0,0,1,90.31,409.51Z"/><path d="M81.71,425.59l-.53,0a6.15,6.15,0,0,1-4.61-2.68,8,8,0,0,1-1.49-6.16c1-6.24,8.37-11.62,8.68-11.85a.88.88,0,0,1,1.22.2.87.87,0,0,1-.19,1.22c-.07.05-7.1,5.19-8,10.71A6.23,6.23,0,0,0,78,421.86a4.34,4.34,0,0,0,3.33,2c5.53.42,13.84-7.95,18.32-12.45l.8-.8c1.22-1.22,2.63-2.5,4-3.74,2.29-2.08,6.13-5.57,6-6.53a3.14,3.14,0,0,0-1.33-.18,9.59,9.59,0,0,0-1,.05.88.88,0,1,1-.15-1.75c1.6-.13,3.51-.11,4.08,1.2.79,1.82-1.8,4.29-6.45,8.5-1.35,1.23-2.74,2.5-3.93,3.68l-.8.81C96,417.5,88,425.59,81.71,425.59Z"/><path d="M91.25,427.8a28.4,28.4,0,0,1-4.91-.5,26.09,26.09,0,0,1-7-2.06.87.87,0,0,1-.39-1.17.88.88,0,0,1,1.17-.4,24.35,24.35,0,0,0,6.5,1.91,23.61,23.61,0,0,0,5.86.42,9.84,9.84,0,0,0,5.23-1.84,16,16,0,0,0,3-3.33l.15-.22c2.6-3.58,5.28-7.27,9.3-9.28a1.68,1.68,0,0,0,.61-.38,1.5,1.5,0,0,0,.07-.47,59.14,59.14,0,0,0-.4-9.75.88.88,0,0,1,1.74-.22,61.91,61.91,0,0,1,.41,10.07,2.79,2.79,0,0,1-.29,1.22,2.72,2.72,0,0,1-1.31,1.07c-3.69,1.84-6.24,5.36-8.71,8.76l-.16.22a17.5,17.5,0,0,1-3.3,3.7,11.63,11.63,0,0,1-6.14,2.2C92.18,427.78,91.71,427.8,91.25,427.8Z"/><path d="M113,485.5c-16,0-23.63-55.74-24-58.11a.88.88,0,0,1,1.74-.23C92.85,442.9,101,483.75,113,483.75c5.1,0,13-2.42,21.37-13.95a.87.87,0,0,1,1.41,1C126.88,483,118.46,485.5,113,485.5Z"/><path d="M129,466.61h-.17a.88.88,0,0,1-.69-1c4.08-20.39-17.83-52.87-18.05-53.19a.88.88,0,1,1,1.45-1,156.47,156.47,0,0,1,10.73,19.18c6.81,14.56,9.36,26.45,7.59,35.34A.88.88,0,0,1,129,466.61Z"/><path d="M212,403.62a4.9,4.9,0,0,1-.93-.1c-4.07-.76-6.45-4.48-7.5-6.62l-.42-.88c-.78-1.67-1.52-3.25-2.92-3.92-1.67-.8-3.49-.05-5.59.82a14.82,14.82,0,0,1-4.63,1.34,8.48,8.48,0,0,1-6.54-2.78,13.42,13.42,0,0,1-3.13-6.21c-.13-.58-.24-1.17-.36-1.76a13.21,13.21,0,0,0-1.29-4.24c-1.88-3.21-6.27-4.17-9.8-4.94-4-.86-8.8-2.39-10.47-6.53a13.65,13.65,0,0,1-.74-4.63c-.11-2.87.08-5.75,2.21-7.44a8.08,8.08,0,0,1,3.9-1.39,52.45,52.45,0,0,1,17.41.27.87.87,0,0,1-.31,1.72,50.91,50.91,0,0,0-16.84-.26,6.52,6.52,0,0,0-3.07,1c-1.52,1.21-1.65,3.6-1.55,6a12,12,0,0,0,.61,4c1.37,3.38,5.65,4.71,9.22,5.48,3.86.84,8.67,1.89,10.94,5.76a14.94,14.94,0,0,1,1.5,4.81c.11.56.22,1.12.35,1.68a11.65,11.65,0,0,0,2.69,5.41,6.75,6.75,0,0,0,5.16,2.24A13.7,13.7,0,0,0,194,391.3c2.28-.94,4.64-1.91,7-.77,2,.94,2.92,3,3.76,4.75.13.29.26.57.4.85,1.55,3.15,3.83,5.22,6.26,5.68a2.28,2.28,0,0,0,1,0c.79-.27,1.1-1.51,1-2.55a13.77,13.77,0,0,0-.32-1.43,8.82,8.82,0,0,1-.42-2.83,5.17,5.17,0,0,1,1.91-3.67,8.3,8.3,0,0,1,6-1.86,20.9,20.9,0,0,1,6.4,2c.88.38,1.78.77,2.67,1.09a21.74,21.74,0,0,0,5.53,1.18c1.9.16,3.18-.14,3.91-.91,1.08-1.14.76-3.13,0-4.5a16.72,16.72,0,0,0-1.83-2.49,25,25,0,0,1-1.68-2.2c-.89-1.39-1.44-3.38-.31-4.78a4,4,0,0,1,3.1-1.28,22.87,22.87,0,0,1,6.94,1.07,24.3,24.3,0,0,0,5.76,1,1.69,1.69,0,0,0,.82-.13.94.94,0,0,0,.14-1.08,4.07,4.07,0,0,0-1.37-1.41,46.68,46.68,0,0,0-16.89-7.84.87.87,0,0,1,.4-1.7,48.15,48.15,0,0,1,17.53,8.14,5.51,5.51,0,0,1,1.93,2.1,2.64,2.64,0,0,1-.82,3.28,3.27,3.27,0,0,1-1.76.39,25.68,25.68,0,0,1-6.19-1.1,21,21,0,0,0-6.41-1,2.39,2.39,0,0,0-1.81.63c-.55.68-.12,1.9.42,2.73a20.24,20.24,0,0,0,1.55,2,18.78,18.78,0,0,1,2,2.76c1.1,2,1.45,4.77-.25,6.56-1.12,1.17-2.86,1.65-5.32,1.45a23.57,23.57,0,0,1-6-1.29c-.94-.33-1.87-.73-2.77-1.12a19.29,19.29,0,0,0-5.87-1.84,6.66,6.66,0,0,0-4.71,1.44,3.48,3.48,0,0,0-1.3,2.45,7.32,7.32,0,0,0,.36,2.29,13.49,13.49,0,0,1,.36,1.61c.25,1.72-.3,3.86-2.12,4.46A3.12,3.12,0,0,1,212,403.62Z"/><path d="M212,410a20.23,20.23,0,0,1-4.84-.79l-1.29-.31A32.24,32.24,0,0,0,194,408.5l-.57.09a10.79,10.79,0,0,1-4.28.13,9.33,9.33,0,0,1-4.36-2.82A24.14,24.14,0,0,1,179,396c-.14-.49-.27-1-.39-1.48a19.07,19.07,0,0,0-1-3.23,4.92,4.92,0,0,0-3-2.88c-1.57-.41-3.29.4-5,1.19l-.71.33c-3,1.37-5.59,1.29-7.15-.23a7.09,7.09,0,0,1-1.54-2.79,107.35,107.35,0,0,0-12-23.62.87.87,0,0,1,.36-1.28c3.16-1.45,6.7-1.29,9.82-1.15a.87.87,0,0,1,.83.92.87.87,0,0,1-.91.83c-2.59-.12-5.49-.25-8.05.61a108.31,108.31,0,0,1,11.63,23.07,5.74,5.74,0,0,0,1.13,2.16c1.44,1.4,4.12.39,5.2-.11l.69-.32c1.86-.88,4-1.87,6.14-1.3a6.65,6.65,0,0,1,4.13,3.84,20.42,20.42,0,0,1,1.14,3.53c.12.47.24.95.38,1.42a22.28,22.28,0,0,0,5.32,9.19,7.67,7.67,0,0,0,3.5,2.33,9.42,9.42,0,0,0,3.6-.15l.58-.09a33.39,33.39,0,0,1,12.52.43l1.33.31a14,14,0,0,0,5.68.64,8.44,8.44,0,0,0,6.05-5.56c.06-.16.11-.32.17-.49a7,7,0,0,1,1-2.08,6.24,6.24,0,0,1,3.92-2.08,34,34,0,0,1,9.45-.09,42.78,42.78,0,0,0,7,.22c1.24-.1,5.41-.65,6.63-3.6a10.43,10.43,0,0,0,.38-1.19,5.42,5.42,0,0,1,1.47-2.89c.87-.75,2.47-.81,4.31-.87,1.11,0,3.16-.1,3.44-.52a.45.45,0,0,0,.07-.38c-.07-.37-.54-1.43-3.33-3.3-1.84-1.23-4.93-3.14-7.38-4.43a.87.87,0,1,1,.81-1.55c2.52,1.33,5.6,3.23,7.54,4.53,2.49,1.67,3.82,3.11,4.08,4.41a2.24,2.24,0,0,1-.34,1.7c-.79,1.16-2.75,1.22-4.83,1.29-1.12,0-2.82.09-3.22.44a4.09,4.09,0,0,0-.94,2,10.76,10.76,0,0,1-.44,1.4c-1.56,3.76-6.2,4.52-8.11,4.67a44.94,44.94,0,0,1-7.26-.21,32,32,0,0,0-9,.06,4.5,4.5,0,0,0-2.87,1.41,5.88,5.88,0,0,0-.72,1.6c-.07.18-.13.35-.19.53a10.2,10.2,0,0,1-7.39,6.67A9.12,9.12,0,0,1,212,410Z"/><path d="M200.28,418.55a10.79,10.79,0,0,1-5.63-1.33,14.93,14.93,0,0,1-3.66-3.56,13.83,13.83,0,0,0-3.05-3.06,15.18,15.18,0,0,0-3.74-1.53c-2.16-.66-4.39-1.35-5.78-3.3-1.17-1.64-1.31-3.58-1.44-5.46a13.33,13.33,0,0,0-.57-3.56,5.91,5.91,0,0,0-9.79-2.12c-.23.23-.44.49-.64.73a8.41,8.41,0,0,1-1.52,1.52c-2.29,1.61-5.31.73-7.38-.63-4-2.62-6.18-6.88-8.32-11-.84-1.61-1.7-3.27-2.65-4.78-.5-.81-1.06-1.63-1.6-2.42-1.66-2.41-3.37-4.91-4-7.86a.89.89,0,0,1,.5-1,26.26,26.26,0,0,1,10.34-2.14h.22a.88.88,0,0,1,0,1.75h-.22a24.47,24.47,0,0,0-8.95,1.72,23.58,23.58,0,0,0,3.58,6.55c.55.81,1.12,1.64,1.65,2.48,1,1.57,1.86,3.27,2.71,4.9,2.13,4.11,4.15,8,7.74,10.35,1.51,1,3.83,1.76,5.4.66a6.47,6.47,0,0,0,1.18-1.21c.24-.28.48-.56.73-.82a7.65,7.65,0,0,1,12.69,2.74,14.29,14.29,0,0,1,.67,4c.13,1.71.24,3.33,1.12,4.56,1,1.47,2.91,2.05,4.87,2.65a16.41,16.41,0,0,1,4.18,1.73,15.43,15.43,0,0,1,3.46,3.43,13.34,13.34,0,0,0,3.21,3.16c2.3,1.39,5.19,1.19,8.46.8a16.94,16.94,0,0,0,4.55-1,16.65,16.65,0,0,0,2.87-1.74c.58-.42,1.19-.85,1.83-1.23a15.31,15.31,0,0,1,8.3-2.14l.74,0c1.34.07,2.6.14,3.43-.52a4.84,4.84,0,0,0,1.14-1.61c.12-.23.24-.46.37-.68a10.14,10.14,0,0,1,11.94-4.2c.4.15.8.32,1.19.48,1.76.74,3.27,1.37,4.72.7a8.61,8.61,0,0,0,1.83-1.29l.21-.18a43,43,0,0,1,7.09-4.78,10.67,10.67,0,0,1,4.32-1.47,11.71,11.71,0,0,1,4.19.76l1.07.32.19.05a1.86,1.86,0,0,0-.15-.77,14.68,14.68,0,0,0-6-6.64.86.86,0,0,1-.31-1.19.87.87,0,0,1,1.19-.32,16.32,16.32,0,0,1,6.66,7.45,3,3,0,0,1,.13,2.28,1.54,1.54,0,0,1-1,.87,2.18,2.18,0,0,1-1.25-.05l-1.12-.33a10.06,10.06,0,0,0-3.57-.68,9,9,0,0,0-3.59,1.26,40.55,40.55,0,0,0-6.8,4.59l-.2.17a10.44,10.44,0,0,1-2.22,1.54c-2.15,1-4.18.15-6.13-.68l-1.14-.46a8.34,8.34,0,0,0-9.81,3.45l-.34.62a6.46,6.46,0,0,1-1.59,2.16c-1.36,1.07-3.09,1-4.61.89l-.71,0a13.58,13.58,0,0,0-7.34,1.89c-.59.35-1.14.74-1.72,1.15a17.93,17.93,0,0,1-3.19,1.93,17.67,17.67,0,0,1-5,1.1A33,33,0,0,1,200.28,418.55Z"/><path d="M140.93,486.2h-.1a.89.89,0,0,1-.71-.53c-3.69-8.86-7-86.83-4.25-100.53.78-3.85,8.47-6.93,9.35-7.26a.87.87,0,0,1,1.13.5.88.88,0,0,1-.5,1.13c-3,1.14-7.82,3.78-8.26,6-1.25,6.22-1.34,26.59-.25,51.9,1,22.14,2.54,40.33,4,46.22,2.62-2.6,10.77-9.39,33.41-21-2.23-4.41-12.89-26.87-17.87-61.75a.87.87,0,0,1,1.73-.25c5.51,38.57,18,61.72,18.09,61.95a.89.89,0,0,1,.07.68.87.87,0,0,1-.44.52c-29.32,15-34.61,22-34.66,22.11A.87.87,0,0,1,140.93,486.2Z"/><path d="M121.35,422.55a.78.78,0,0,1-.22,0,.87.87,0,0,1-.63-1.06c.29-1.16,7.33-28.53,15.41-35.18a.87.87,0,1,1,1.11,1.35c-7.64,6.29-14.76,34-14.83,34.26A.86.86,0,0,1,121.35,422.55Z"/><path d="M248.29,491.44h-.1a.89.89,0,0,1-.67-.46c-.11-.21-11.16-20.82-17.86-24.84a.87.87,0,0,1-.36-1.08c.15-.37,15.28-37.78,13.23-56.23a.86.86,0,0,1,.77-1,.87.87,0,0,1,1,.77c2,17.73-11,51.11-13.08,56.41,6.11,4.31,14.57,19.09,17.13,23.73,4.73-11.26,12.38-82.17,12.4-82.85s-2.79-3.72-5.19-6.06a.87.87,0,0,1,1.21-1.25c2.14,2.07,5.72,5.78,5.72,7.32,0,.7-8.24,79.2-13.5,85.21A.88.88,0,0,1,248.29,491.44Z"/><path d="M201.89,452.05a21.3,21.3,0,0,1-4.65-.51,12.93,12.93,0,0,1-5.22-2.26,18.45,18.45,0,0,1-4.14-5.11,6.57,6.57,0,0,1-1-2.3,6.19,6.19,0,0,1,0-1.77,5.83,5.83,0,0,0,0-1.09,6.65,6.65,0,0,0-1.2-2.76c-.18-.3-.37-.6-.54-.91-1.12-2-1.2-3.87-.22-5.16a5.77,5.77,0,0,1,3.12-1.75c1.22-.38,2-.66,2.2-1.32a3.1,3.1,0,0,0,.1-.61c0-.15,0-.3.06-.44a5.69,5.69,0,0,1,4.13-4.3h0a8.1,8.1,0,0,1,2.28-.07,15,15,0,0,0,2.13,0,.89.89,0,0,1,.28-.53.86.86,0,0,1,.92-.16,16,16,0,0,0,5.07,1.4c.46,0,.92,0,1.39,0a13.17,13.17,0,0,1,3,.24,8.9,8.9,0,0,1,4.49,2.74,12.13,12.13,0,0,1,.29,15.55l-.16.19a3.32,3.32,0,0,0-.58.81,3.19,3.19,0,0,0,.12,1.95,7.11,7.11,0,0,1,.27,2.1c-.13,1.95-1.69,3.59-4.4,4.63A21.87,21.87,0,0,1,201.89,452.05ZM195.6,423.4a3,3,0,0,0-.6,0h0a3.93,3.93,0,0,0-2.89,2.9c0,.12,0,.24,0,.36a4.32,4.32,0,0,1-.19,1c-.52,1.54-2,2-3.33,2.42a4.39,4.39,0,0,0-2.24,1.14c-.79,1,.06,2.75.34,3.25.16.28.34.56.51.84a6.3,6.3,0,0,1,1.41,4.92,5.21,5.21,0,0,0,0,1.31,5.13,5.13,0,0,0,.79,1.68,16.81,16.81,0,0,0,3.72,4.66,11.53,11.53,0,0,0,4.54,1.94A20.11,20.11,0,0,0,209,449c.95-.36,3.17-1.39,3.29-3.1a5.86,5.86,0,0,0-.23-1.58,3.81,3.81,0,0,1,.85-4.32l.15-.17a10.34,10.34,0,0,0-.25-13.23,7.39,7.39,0,0,0-3.61-2.23,12.62,12.62,0,0,0-2.65-.2c-.5,0-1,0-1.48,0a15.24,15.24,0,0,1-4.82-1.2c-.7.64-2,.58-3.56.5Zm-.84-.8h0Z"/><path d="M202.58,499.47a11.18,11.18,0,0,1-1.49-.1,21.89,21.89,0,0,1-11.34-5.15,13,13,0,0,1-3.5-4.48,18.17,18.17,0,0,1-1.18-6.47,6.41,6.41,0,0,1,.19-2.51,6.61,6.61,0,0,1,.83-1.56,4.65,4.65,0,0,0,.83-3.94c0-.35,0-.71,0-1.06,0-2.28.8-4,2.27-4.63a5.84,5.84,0,0,1,3.58-.05c1.25.25,2.05.37,2.56-.1a3,3,0,0,0,.38-.49l.27-.36a5.69,5.69,0,0,1,5.69-1.79h0a8.29,8.29,0,0,1,2,1,12,12,0,0,0,1.88,1,.87.87,0,0,1,.5-.33.9.9,0,0,1,.88.3,15.83,15.83,0,0,0,3.78,3.66c.39.24.79.46,1.2.68a13.37,13.37,0,0,1,2.55,1.68,8.94,8.94,0,0,1,2.64,4.56,12.14,12.14,0,0,1-7.19,13.79l-.23.08a2.21,2.21,0,0,0-1.73,2.21,7.05,7.05,0,0,1-.77,2C206.32,498.76,204.71,499.47,202.58,499.47ZM190.73,471a2.2,2.2,0,0,0-.86.16c-1.19.54-1.25,2.45-1.25,3,0,.33,0,.66,0,1a8,8,0,0,1-.41,3.79,7.72,7.72,0,0,1-.7,1.2,5.07,5.07,0,0,0-.63,1.15,5.15,5.15,0,0,0-.11,1.86,16.93,16.93,0,0,0,1,5.86,11.18,11.18,0,0,0,3.05,3.88,20.1,20.1,0,0,0,10.43,4.72c1,.14,3.44.3,4.37-1.15a5.51,5.51,0,0,0,.55-1.5,4.69,4.69,0,0,1,1.43-2.69,5.19,5.19,0,0,1,1.39-.7l.21-.08a10.31,10.31,0,0,0,6.11-11.72,7.32,7.32,0,0,0-2.1-3.69,11.87,11.87,0,0,0-2.23-1.44c-.44-.24-.87-.48-1.29-.74a15.53,15.53,0,0,1-3.66-3.36c-.91.23-2.05-.47-3.36-1.26a8.83,8.83,0,0,0-1.51-.82h0a3.92,3.92,0,0,0-3.92,1.16c-.08.1-.14.19-.21.29a4.39,4.39,0,0,1-.64.78c-1.2,1.1-2.73.8-4.08.52A9.69,9.69,0,0,0,190.73,471Zm15-2.15h0Z"/><path d="M195.85,542.91a3.51,3.51,0,0,1-2.34-.81,5.79,5.79,0,0,1-1.58-3.2c-.31-1.24-.55-2-1.19-2.27a3.81,3.81,0,0,0-.6-.14l-.45-.08a5.7,5.7,0,0,1-4.06-4.37,8.43,8.43,0,0,1,.05-2.27,13.28,13.28,0,0,0,.11-2.13.94.94,0,0,1-.52-.31.87.87,0,0,1-.1-.93,15.66,15.66,0,0,0,1.67-5c0-.46.08-.92.11-1.38a13.29,13.29,0,0,1,.41-3,8.91,8.91,0,0,1,3-4.34,12.14,12.14,0,0,1,15.54.57l.17.17a3.54,3.54,0,0,0,.78.63,3.3,3.3,0,0,0,1.95,0,7,7,0,0,1,2.12-.16c1.93.24,3.49,1.89,4.37,4.65a21.81,21.81,0,0,1,.24,12.45,13.08,13.08,0,0,1-2.55,5.09,18.26,18.26,0,0,1-5.33,3.85,6.62,6.62,0,0,1-2.35.9,6.45,6.45,0,0,1-1.77-.08,6,6,0,0,0-1.09-.09,6.63,6.63,0,0,0-2.82,1c-.31.17-.62.34-.94.49A6.52,6.52,0,0,1,195.85,542.91Zm-8.73-16.54c.59.72.46,2,.3,3.57a9.49,9.49,0,0,0-.09,1.72h0a3.92,3.92,0,0,0,2.74,3l.35.07a4.29,4.29,0,0,1,1,.24c1.52.61,1.9,2.12,2.24,3.46a4.42,4.42,0,0,0,1,2.3c1,.84,2.75.08,3.26-.17.3-.14.59-.3.88-.46a8,8,0,0,1,3.6-1.25,7.83,7.83,0,0,1,1.39.11,4.89,4.89,0,0,0,1.3.08,5.25,5.25,0,0,0,1.73-.7,16.93,16.93,0,0,0,4.85-3.46,11.36,11.36,0,0,0,2.18-4.42,20,20,0,0,0-.21-11.45c-.31-1-1.22-3.24-2.92-3.45a5.3,5.3,0,0,0-1.59.15,4.73,4.73,0,0,1-3.05-.14,4.61,4.61,0,0,1-1.22-1l-.16-.16a10.33,10.33,0,0,0-13.22-.48A7.33,7.33,0,0,0,189,517.5a12.2,12.2,0,0,0-.35,2.64c0,.49-.06,1-.11,1.48A15.56,15.56,0,0,1,187.12,526.37Z"/><path d="M165.28,779.25c-7.28,0-14.31-.56-16.93-1.43a4,4,0,0,1-2.76-2.67c-1.2-4.08,3.87-10.57,4.45-11.3a.87.87,0,1,1,1.36,1.09c-1.42,1.78-4.93,7-4.13,9.71a2.25,2.25,0,0,0,1.63,1.51c6.44,2.15,33.08,1.8,35.41-1.12,1.66-2.08-1.39-8.12-3.9-11.77-1.06.23-3.4.75-4.93,1.26-2,.65-9.73,1.67-12.22-2.48-1.38-2.3-6.87-.48-8.68.35a.89.89,0,0,1-.89-.1c-5.46-4.1-8.28-8-8.64-11.8-.43-4.58,2.73-8,5.28-10.83l.28-.3a.86.86,0,0,1,1.23-.06.87.87,0,0,1,.06,1.23l-.28.31c-2.43,2.66-5.19,5.68-4.83,9.49.3,3.19,2.84,6.64,7.55,10.25,1.93-.79,8.25-3.06,10.42.56,1.78,3,8.33,2.33,10.16,1.72,2.13-.71,5.56-1.4,5.7-1.43a.87.87,0,0,1,.89.35c.75,1.06,7.29,10.44,4.17,14.34C183.88,778.37,174.38,779.25,165.28,779.25Z"/><path d="M155.62,744.29a.88.88,0,0,1-.44-.12.87.87,0,0,1-.32-1.19c1.43-2.51-2.88-19.23-6.34-32.67-3-11.5-5.76-22.36-6.36-28.36-.69-6.87-.37-17.14,0-28,.36-11.75.74-23.9,0-34.25-.59-8.68-1.31-18.42-2-27.84-.92-12.4-1.78-24.11-2.18-30.93-.7-11.82,6.13-76.9,6.42-79.66a.87.87,0,0,1,1.74.18c-.07.68-7.1,67.7-6.42,79.38.4,6.8,1.27,18.51,2.18,30.9.7,9.42,1.42,19.17,2,27.85.72,10.44.34,22.63,0,34.42-.33,10.82-.65,21,0,27.8.58,5.87,3.5,17.16,6.31,28.09,4.95,19.2,7.83,31.06,6.17,34A.89.89,0,0,1,155.62,744.29Z"/><path d="M243.75,766h-.09c-.29,0-7.09-.72-9.92-1.42a3.57,3.57,0,0,0-1.73.09c-2,.43-4.81,1-13.17-3.68C206.5,754,206.5,735,206.5,728.73c0-2.33.05-6,.12-10.26.16-11.27.39-26.69-.12-33.75-.23-3.21-.77-8.29-1.35-13.67-1.23-11.42-2.62-24.37-2.14-29.14.78-7.79-1.6-48.16-4.51-52.28-1.72,2.36-3.39,19.27-4.3,28.51-.51,5.23-1,9.74-1.35,12.11-.82,4.93-.91,17.88-1,30.4-.06,8.45-.11,16.43-.4,21.27-.45,7.71-.31,13.16-.16,18.94.08,3.18.16,6.47.16,10.38,0,5.69,1.5,13.36,2.82,20.13s2.43,12.46,2.07,15.64c-.73,6.6-10.44,13.61-10.85,13.9a.87.87,0,1,1-1-1.42c.1-.07,9.49-6.84,10.14-12.67.32-2.92-.84-8.84-2.06-15.11-1.33-6.85-2.85-14.62-2.85-20.47,0-3.89-.08-7.17-.16-10.34-.15-5.81-.29-11.3.17-19.09.28-4.78.33-12.74.39-21.17.08-12.59.17-25.61,1-30.68.39-2.31.83-6.8,1.34-12,2-20.58,3.25-29.31,5.59-30.15a1.46,1.46,0,0,1,1.55.41c3.87,3.87,5.8,47.3,5.15,53.86-.46,4.6,1,18,2.14,28.78.58,5.39,1.12,10.49,1.36,13.74.51,7.13.28,22.6.11,33.89-.06,4.25-.11,7.92-.11,10.24,0,6,0,24.27,11.44,30.71,7.79,4.38,10.2,3.87,12,3.49a5.23,5.23,0,0,1,2.51-.08c2.71.68,9.6,1.37,9.67,1.38a.87.87,0,0,1,.79.95A.88.88,0,0,1,243.75,766Z"/><path d="M224.17,781.68c-5,0-10.11-.26-11.12-1.28-2.29-2.29,2.54-13.19,4.73-17.78a.87.87,0,0,1,1.58.75c-3.58,7.51-6,14.89-5.07,15.8.92.64,8.6,1,19.35.51,11.37-.55,18.42-1.75,19.28-2.61s-.5-5.36-6.34-12.1a.89.89,0,0,1-.13-.94.87.87,0,0,1,.79-.51c2,0,7.49-.43,9.18-2.39a1.77,1.77,0,0,0,.45-1.51c-.27-1.84-1.89-6.39-3.6-11.2-1.83-5.1-3.89-10.89-4.9-15a.88.88,0,1,1,1.7-.42c1,4,3,9.77,4.84,14.83s3.4,9.52,3.69,11.55a3.54,3.54,0,0,1-.86,2.9c-1.85,2.13-6.19,2.75-8.7,2.92.85,1.06,2,2.63,3.13,4.32,2.85,4.4,3.5,7.27,2,8.78-2.12,2.12-16.44,2.94-20.78,3.15C231.54,781.53,227.88,781.68,224.17,781.68Z"/><path d="M242.35,739.39a.87.87,0,0,1-.88-.87c0-.34.09-.58,2.31-5.79,3.25-7.63,9.31-21.83,10.3-27.24,1.41-7.81,1.35-22.47.69-29.13-.65-6.41-4.22-66.55-2.79-73,1-4.55.9-16.8.78-31,0-5.11-.1-10.38-.1-15.69,0-16.29-4.07-42.52-6.76-59.87-.65-4.19-1.21-7.8-1.62-10.65a.87.87,0,1,1,1.73-.25c.4,2.84,1,6.45,1.61,10.63,2.71,17.41,6.79,43.72,6.79,60.14,0,5.3.05,10.57.09,15.67.13,14.29.25,26.63-.81,31.38-1.34,6,2.12,65.54,2.82,72.46s.73,21.67-.71,29.62c-1,5.6-6.9,19.38-10.41,27.62-1.06,2.47-2,4.8-2.18,5.23A.87.87,0,0,1,242.35,739.39Z"/><path d="M197.58,583.77a.53.53,0,0,1-.52-.5c-.34-6.41-.46-20.28-.36-41.24a.52.52,0,0,1,.52-.52h0a.52.52,0,0,1,.52.52c-.1,20.94,0,34.8.36,41.19a.53.53,0,0,1-.5.55Z"/><path d="M197.48,510.84h0a.52.52,0,0,1-.52-.53c0-4,.09-8,.14-12a.52.52,0,0,1,.52-.52h0a.52.52,0,0,1,.52.53c-.05,4-.1,8-.14,12A.53.53,0,0,1,197.48,510.84Z"/><path d="M198.05,467.76h0a.52.52,0,0,1-.52-.53c.08-5.52.17-10.85.25-15.86a.52.52,0,0,1,.52-.52h0a.52.52,0,0,1,.52.53c-.08,5-.17,10.34-.25,15.87A.52.52,0,0,1,198.05,467.76Z"/><path d="M198.79,422.64h0a.52.52,0,0,1-.51-.53l.07-4.08a.53.53,0,0,1,.53-.52h0a.53.53,0,0,1,.51.54l-.07,4.07A.53.53,0,0,1,198.79,422.64Z"/><path d="M192,344.56a.39.39,0,0,1-.15,0,.52.52,0,0,1-.36-.65c1.16-3.92,2.71-6,4.62-6.24,2.91-.35,5.33,3.85,5.44,4a.53.53,0,1,1-.92.52c-.6-1.05-2.57-3.74-4.4-3.51-1.43.17-2.72,2.07-3.73,5.5A.52.52,0,0,1,192,344.56Z"/><path d="M289.2,444c3.73.42,7.55-3.08,7.72-3.24a.92.92,0,0,0-1.25-1.35s-3.87,3.53-6.85,2.64c-3.27-1-4.24-2.16-4.49-3a2.38,2.38,0,0,1,.45-2,.92.92,0,0,0-1.41-1.19,4.24,4.24,0,0,0-.8,3.7c.54,1.83,2.47,3.25,5.72,4.22A4.73,4.73,0,0,0,289.2,444Z"/><path d="M287.65,437.63a16.45,16.45,0,0,0,4.77-.12,40.34,40.34,0,0,0,6.38-2.34.92.92,0,1,0-.77-1.67,41.18,41.18,0,0,1-6,2.21c-1.81.39-6.23.27-7.72-1.09a1.27,1.27,0,0,1-.46-1.17c.27-2.45,2.92-3,6.35-3.4l.76-.1,9.05-1.22a.92.92,0,1,0-.25-1.83L290,428.22c-3,.37-7.5.93-8,5a3.09,3.09,0,0,0,1.05,2.74A8.34,8.34,0,0,0,287.65,437.63Z"/><path d="M283.16,431.33a.9.9,0,0,0,.61-.15.92.92,0,0,0,.26-1.27,3.23,3.23,0,0,1-.65-2.67c.5-1.8,3.11-3.06,4.85-3.9l.84-.42c1.73-.89,6.68-.58,8.44-.38a.93.93,0,1,0,.2-1.84c-.7-.07-6.95-.73-9.49.59l-.8.39c-2,1-5.1,2.46-5.82,5.07a5,5,0,0,0,.89,4.17A.93.93,0,0,0,283.16,431.33Z"/><path d="M283.81,425.46a.92.92,0,0,0,.62-1.68,2.34,2.34,0,0,1-.74-2.23.92.92,0,1,0-1.83-.2,4.12,4.12,0,0,0,1.55,4A.92.92,0,0,0,283.81,425.46Z"/><path d="M284,447.59h0a.9.9,0,0,0,0-1.36c-3.75-3.46-8.18-14.25-7.92-16.6.17-1.53.63-3.74,1-5.69.37-1.77.72-3.43.84-4.5.2-1.81,2.56-4.91,4.41-5.31s4.84-.16,5.47.85c.33.53,0,1.5-1,2.73-1.31,1.65-2.59,2.49-3.81,2.5a3.22,3.22,0,0,1-2.14-.93l-.24-.25a.92.92,0,0,0-1.38,1.21,2.81,2.81,0,0,0,.29.32c1.58,1.72,1.59,2.62,1.52,2.94a.94.94,0,0,1-.52.6.91.91,0,0,0-.54,1.18.92.92,0,0,0,1.18.55,2.78,2.78,0,0,0,1.68-1.92,3.24,3.24,0,0,0-.17-1.87h.32c1.82,0,3.58-1.08,5.26-3.19a7.05,7.05,0,0,0,1.45-2.72.63.63,0,0,0,.19,0,14.84,14.84,0,0,1,5.24-.73l.26,0c1.47.23,3.21,1.21,3.54,2.83a6.58,6.58,0,0,1,.09,1,6.58,6.58,0,0,0,.24,1.76,6.47,6.47,0,0,0,1.75,2.48,5.13,5.13,0,0,1,1.29,1.67,4,4,0,0,1-.68,3.26,3.06,3.06,0,0,0-.47,1.07,2.79,2.79,0,0,0,.14,1.36,2.83,2.83,0,0,1,.09.37,2.87,2.87,0,0,1-.95,2.18l-.33.38a6.88,6.88,0,0,0-1.66,2.66,6.23,6.23,0,0,0-.17,1.17c0,.21,0,.43-.08.65a7.4,7.4,0,0,1-1.12,2.43l-3.44,5.65a.9.9,0,0,0,.5,1.33h0a.92.92,0,0,0,1.06-.4l3.44-5.63a9,9,0,0,0,1.36-3.07c.05-.27.07-.54.1-.81a4.24,4.24,0,0,1,.12-.85,5.13,5.13,0,0,1,1.26-1.93l.35-.39a4.54,4.54,0,0,0,1.36-3.69,4,4,0,0,0-.14-.57,1.5,1.5,0,0,1-.1-.52,2.07,2.07,0,0,1,.2-.39c1.11-1.83,1.4-3.51.87-4.91a6.79,6.79,0,0,0-1.7-2.33,4.93,4.93,0,0,1-1.31-1.75,4.82,4.82,0,0,1-.16-1.26,7.53,7.53,0,0,0-.12-1.32c-.52-2.51-2.92-4-5.08-4.29a10.5,10.5,0,0,0-3.31.07,12.7,12.7,0,0,0-2,.58l-.42.15a.11.11,0,0,1-.08,0l-.06,0-.73-.77a5.88,5.88,0,0,0-3.88-1.43,12,12,0,0,0-3.22.17c-2.69.57-5.58,4.38-5.86,6.91-.11,1-.45,2.6-.81,4.32-.44,2.09-.89,4.25-1.07,5.86-.36,3.19,4.37,14.24,8.49,18.14A.91.91,0,0,0,284,447.59Z"/><path d="M287.2,453.94a11.42,11.42,0,0,1-6.54-1.82c-2.54-1.78-3.89-3.76-4-5.88a6.67,6.67,0,0,1,2.18-4.94.88.88,0,1,1,1.15,1.32h0a4.89,4.89,0,0,0-1.58,3.54c.08,1.55,1.18,3.07,3.26,4.53,3.29,2.3,8.59,1.74,12.12,0,1.83-.91,3-2.06,3-3,0-.78-.75-1.42-1.42-1.81a.88.88,0,0,1-.3-1.2.87.87,0,0,1,1.2-.3c1.94,1.16,2.3,2.48,2.27,3.38-.07,1.64-1.53,3.28-4,4.51A17.25,17.25,0,0,1,287.2,453.94Z"/><path d="M284.63,459.38l-.51,0a8.87,8.87,0,0,1-6.23-3.46,20.72,20.72,0,0,1-2.37-4.08L273,446.59c-1.33-2.74-2.83-5.84-3-9.19-.18-3.2,1.15-7.14,4.52-8.72a.88.88,0,0,1,1.16.42.86.86,0,0,1-.42,1.16c-2.61,1.23-3.65,4.51-3.52,7,.17,3,1.59,5.94,2.84,8.53l2.53,5.23a20.1,20.1,0,0,0,2.16,3.75,7.27,7.27,0,0,0,5,2.81,12.43,12.43,0,0,0,4.63-.94,18.71,18.71,0,0,1,3.83-1,17.53,17.53,0,0,1,3.07,0c.74,0,1.43.06,2.13,0,1,0,2.92-.32,3.85-1.65a5.22,5.22,0,0,0,.71-2.07c.11-.69.18-1.4.26-2.15.21-2.13.43-4.33,1.75-6.15.13-.18.27-.36.41-.53a5.76,5.76,0,0,0,.59-.82,3.22,3.22,0,0,0-.51-3.19,6.87,6.87,0,0,0-1.54-1.49.88.88,0,0,1,1.05-1.4,8.61,8.61,0,0,1,1.9,1.85,4.88,4.88,0,0,1,.65,5,6.81,6.81,0,0,1-.78,1.11l-.35.45c-1.05,1.44-1.24,3.32-1.43,5.31-.08.74-.15,1.51-.28,2.25a6.71,6.71,0,0,1-1,2.79,6.46,6.46,0,0,1-5.21,2.4c-.77,0-1.53,0-2.28,0a18.49,18.49,0,0,0-2.79,0,17.9,17.9,0,0,0-3.48.91A15.2,15.2,0,0,1,284.63,459.38Z"/><path d="M265.43,494.7c-7,0-13.64-7.06-13.93-7.38a.87.87,0,1,1,1.28-1.19c.07.08,7.25,7.74,13.91,6.72,8.65-1.33,21.81-23.64,25.17-36.42a.87.87,0,1,1,1.69.44c-1.79,6.8-6,15.71-11,23.25-3.3,5-9.72,13.55-15.63,14.46A9.86,9.86,0,0,1,265.43,494.7Z"/><path d="M258.43,461.72a.94.94,0,0,1-.36-.08.87.87,0,0,1-.43-1.16c2.88-6.35,11.28-15.43,13.78-18.07a.88.88,0,1,1,1.27,1.21c-5.06,5.32-11.26,12.74-13.46,17.59A.88.88,0,0,1,258.43,461.72Z"/><path d="M270.32,429.54a.86.86,0,0,1-.83-.62c-.05-.14-4.38-14.38-8.49-19.46a.87.87,0,0,1,1.36-1.1c4.32,5.35,8.62,19.46,8.8,20.06a.87.87,0,0,1-.58,1.09A1.15,1.15,0,0,1,270.32,429.54Z"/><path d="M288.74,414.46a.87.87,0,0,1-.87-.87l-1.63-161.17a.87.87,0,1,1,1.74,0l1.64,161.17a.89.89,0,0,1-.87.88Z"/><path d="M289.91,529.56a.88.88,0,0,1-.88-.86L288.17,443a.87.87,0,0,1,.86-.88h0a.87.87,0,0,1,.87.87l.87,85.67a.86.86,0,0,1-.86.88Z"/><polygon class="cls-9" points="287.49 250.01 284.02 250.01 282.86 255.21 287.49 255.21 292.11 255.21 290.96 250.01 287.49 250.01"/><path class="cls-10" d="M349.74,95.73a60.27,60.27,0,0,0-11.41-19.36,61.09,61.09,0,0,0-17.75-13.82,55,55,0,0,0-22.23-6.13,56.3,56.3,0,0,0-22.82,3.14,59.46,59.46,0,0,0-19.35,11.35,60.1,60.1,0,0,0-13.77,17.75A56.08,56.08,0,0,0,236.34,111a12.41,12.41,0,0,0,3,9.26,12.11,12.11,0,0,0,8.75,4.18,12.4,12.4,0,0,0,5-.65,11.82,11.82,0,0,0,4.15-2.45,14.16,14.16,0,0,0,3-3.87,12,12,0,0,0,1.33-4.87A32.78,32.78,0,0,1,272.7,89.74a34,34,0,0,1,11-6.37,32.25,32.25,0,0,1,13.06-1.78,31.34,31.34,0,0,1,12.6,3.47,34.11,34.11,0,0,1,16.58,18.83,31.39,31.39,0,0,1,1.84,12.94,32.82,32.82,0,0,1-11.13,22.88l-20,16.38q-18.33,16.14-19.7,37.82a12.09,12.09,0,0,0,3,9.21,12.41,12.41,0,0,0,8.81,4.12,12.18,12.18,0,0,0,13.33-11.73q.72-11.44,11-20.47l20-16.26q18.35-16.5,19.86-40.35A55.44,55.44,0,0,0,349.74,95.73Z"/><path class="cls-11" d="M287.49,211.68a19.58,19.58,0,1,0,13.89,5.74A18.89,18.89,0,0,0,287.49,211.68Z"/><g class="cls-12"><path class="cls-13" d="M292.39,189.83c-.8-.05-.93-.19-1.1-.38s-.22-.25-.18-.94c.73-11.38,5.87-21.17,15.74-29.91L327,142.16l.22-.21A44,44,0,0,0,342,111.43a42.89,42.89,0,0,0-2.51-17.55,45.44,45.44,0,0,0-22-25,42.82,42.82,0,0,0-17.09-4.71,43.92,43.92,0,0,0-17.57,2.41,45.48,45.48,0,0,0-14.61,8.49,44.13,44.13,0,0,0-15.06,30.7,1.28,1.28,0,0,1-.06.33,2.73,2.73,0,0,1-.58.77.73.73,0,0,1-.24.13,1.53,1.53,0,0,1-.56,0c-.69,0-.78-.14-.91-.29s-.29-.34-.24-1.14a44.4,44.4,0,0,1,4.84-17.89,49.31,49.31,0,0,1,11.19-14.44,48.25,48.25,0,0,1,15.69-9.19,44.78,44.78,0,0,1,18.28-2.5,43.32,43.32,0,0,1,17.71,4.87,50,50,0,0,1,14.49,11.27A49.22,49.22,0,0,1,342,93.48a43.78,43.78,0,0,1,2.55,18.12c-.81,12.86-6,23.48-15.93,32.46l-20,16.22-.17.15c-9.13,8-14.11,17.55-14.79,28.25-.05.74-.17.85-.31,1S293.13,189.88,292.39,189.83Z"/></g><circle class="cls-14" cx="286.9" cy="231.3" r="19.94"/><path class="cls-15" d="M283.51,251.08c-.27,1-.62,1.92-.95,2.88l-.49,1.46c-.12.35-.21.91-.55,1.14s0,.63.26.45a1.88,1.88,0,0,0,.65-1l.52-1.56c.36-1.06.76-2.12,1.06-3.2a.26.26,0,0,0-.5-.13Z"/><path class="cls-15" d="M290.71,251.13l1.1,3.94.19-.32c-3.15,1-6.47.87-9.72.71-.33,0-.33.5,0,.52,3.3.16,6.67.3,9.85-.73a.26.26,0,0,0,.18-.32l-1.1-3.93a.26.26,0,0,0-.5.13Z"/><path class="cls-15" d="M283.59,250.89a10.9,10.9,0,0,1-1.38.4,8.6,8.6,0,0,1-1.42.24c-.33,0-.33.53,0,.52a9.39,9.39,0,0,0,1.5-.25,10.28,10.28,0,0,0,1.44-.41.27.27,0,0,0,.18-.32.26.26,0,0,0-.32-.18Z"/><path class="cls-14" d="M350.13,96.35a60.16,60.16,0,0,0-11.2-19.48,60.84,60.84,0,0,0-17.6-14,55.09,55.09,0,0,0-22.16-6.38,56.43,56.43,0,0,0-22.85,2.9,59,59,0,0,0-19.47,11.14,60,60,0,0,0-14,17.6,56,56,0,0,0-6.32,22.28,12.44,12.44,0,0,0,2.87,9.3,12.11,12.11,0,0,0,8.7,4.28,12.62,12.62,0,0,0,5-.6,12,12,0,0,0,4.18-2.41,13.92,13.92,0,0,0,3-3.83,12.11,12.11,0,0,0,1.4-4.86,32.65,32.65,0,0,1,11.44-22.75,34,34,0,0,1,11.05-6.26,32.34,32.34,0,0,1,13.08-1.63,31.58,31.58,0,0,1,12.56,3.6,34.15,34.15,0,0,1,16.38,19,31.43,31.43,0,0,1,1.69,13A32.8,32.8,0,0,1,316.55,140l-20.21,16.17q-18.49,15.93-20.11,37.6a12.06,12.06,0,0,0,2.94,9.23,12.39,12.39,0,0,0,8.77,4.23,12.19,12.19,0,0,0,13.45-11.59q.86-11.43,11.2-20.35l20.2-16q18.52-16.29,20.3-40.13A55.38,55.38,0,0,0,350.13,96.35Z"/><path class="cls-16" d="M294.69,230.77a6.62,6.62,0,1,1,4.72-1.94A6,6,0,0,1,294.69,230.77Z"/><path class="cls-7" d="M257.21,153.24s-12.89,11.5-6.32,17.77l9.06.11s-4.17-9,3.79-13.76Z"/><path class="cls-7" d="M142.68,219s14.25,9.79,18.77,1.92l-2-8.83s-7.71,6.18-14.26-.4Z"/><path class="cls-8" d="M86.57,271s-4.13,6.52-11,2.9L77,284s9.24.93,13.31-7.73Z"/><path class="cls-8" d="M264.72,267.6s7.64,9.55,16.95,3.2l1.95-7.46s-7.62,3.15-13-2.47Z"/><path class="cls-6" d="M137.76,303.16s7.87,9.38,17,2.82l1.78-7.51s-7.55,3.33-13.1-2.16Z"/><path class="cls-6" d="M304.46,218.81s7.86,9.37,17,2.82l1.78-7.51s-7.55,3.32-13.1-2.17Z"/><path class="cls-4" d="M218.36,239.22a10.74,10.74,0,0,1-11.57-1.7l-1.8,7.29s9.53,6,14.84,1Z"/><path class="cls-17" d="M342.4,295.15a10.73,10.73,0,0,1-2.74-11.37l-7.43,1.05s-2.05,11.09,4.64,14.13Z"/><path class="cls-4" d="M151.37,157.62a10.74,10.74,0,0,1-9.2,7.21l4,6.33s10.93-2.76,10.92-10.1Z"/></svg>